<?xml version="1.0" encoding="utf-8"?>
<!-- Generator: Adobe Illustrator 16.0.0, SVG Export Plug-In . SVG Version: 6.00 Build 0)  -->
<!DOCTYPE svg PUBLIC "-//W3C//DTD SVG 1.1//EN" "http://www.w3.org/Graphics/SVG/1.1/DTD/svg11.dtd">
<svg version="1.1" id="Layer_1" xmlns="http://www.w3.org/2000/svg" xmlns:xlink="http://www.w3.org/1999/xlink" x="0px" y="0px"
	 width="101.5px" height="10.37px" viewBox="0 0 101.5 10.37" enable-background="new 0 0 101.5 10.37" xml:space="preserve">
<g>
	<path fill="#24262A" d="M6.453,8.319v1.798H0V0.253h2.064v8.066H6.453z"/>
	<path fill="#24262A" d="M14.663,10.117l-0.745-2.352h-3.466l-0.759,2.352H7.622l3.425-9.864h2.427l3.425,9.864H14.663z
		 M12.134,2.304l-1.237,3.869h2.584l-1.224-3.869H12.134z"/>
	<path fill="#24262A" d="M22.251,10.117h-2.064v-3.63l-3.438-6.234h2.235l2.174,4.129h0.123l2.167-4.129h2.235l-3.432,6.234V10.117z
		"/>
	<path fill="#24262A" d="M33.906,8.354v1.764h-6.535V0.253h6.535v1.764h-4.471V4.32h4.218v1.634h-4.218v2.399H33.906z"/>
	<path fill="#24262A" d="M38.145,6.542v3.575H36.08V0.253h4.143c1.084,0,1.939,0.283,2.563,0.848s0.937,1.337,0.937,2.317
		c0,0.638-0.158,1.209-0.475,1.712s-0.755,0.867-1.316,1.09l2.078,3.896h-2.338l-1.839-3.575H38.145z M38.145,1.921v3.035h1.812
		c0.52,0,0.924-0.133,1.213-0.4s0.434-0.637,0.434-1.111c0-0.469-0.15-0.841-0.451-1.114s-0.707-0.41-1.217-0.41H38.145z"/>
	<path fill="#24262A" d="M45.356,7.376h1.996c0.045,0.401,0.255,0.72,0.629,0.957s0.852,0.355,1.436,0.355
		c0.538,0,0.978-0.117,1.319-0.352s0.513-0.539,0.513-0.913c0-0.314-0.132-0.57-0.396-0.766s-0.7-0.358-1.306-0.485l-1.285-0.273
		c-1.787-0.374-2.68-1.313-2.68-2.816c0-0.93,0.344-1.676,1.032-2.239S48.216,0,49.355,0c1.084,0,1.977,0.276,2.676,0.827
		s1.065,1.267,1.097,2.146h-1.941c-0.05-0.392-0.242-0.707-0.574-0.943s-0.748-0.355-1.244-0.355c-0.52,0-0.936,0.112-1.248,0.335
		s-0.468,0.522-0.468,0.896c0,0.305,0.126,0.551,0.379,0.738s0.669,0.342,1.248,0.465l1.189,0.253
		c0.989,0.209,1.709,0.538,2.16,0.984s0.677,1.053,0.677,1.818c0,0.994-0.356,1.776-1.07,2.348s-1.689,0.858-2.929,0.858
		c-1.176,0-2.119-0.269-2.83-0.807S45.393,8.296,45.356,7.376z"/>
	<path fill="#F78D2A" d="M65.317,8.319v1.798h-6.453V0.253h2.064v8.066H65.317z"/>
	<path fill="#F78D2A" d="M71.231,0c1.458,0,2.611,0.465,3.462,1.395s1.274,2.192,1.274,3.787c0,1.6-0.424,2.864-1.274,3.794
		s-2.004,1.395-3.462,1.395c-1.463,0-2.621-0.465-3.473-1.395c-0.853-0.93-1.279-2.194-1.279-3.794c0-1.595,0.429-2.857,1.285-3.787
		C68.622,0.465,69.777,0,71.231,0z M73.148,2.724c-0.476-0.608-1.115-0.913-1.917-0.913c-0.803,0-1.443,0.304-1.922,0.913
		s-0.717,1.428-0.717,2.458s0.238,1.85,0.714,2.461s1.118,0.916,1.925,0.916c0.802,0,1.441-0.305,1.917-0.916
		s0.714-1.431,0.714-2.461S73.624,3.333,73.148,2.724z"/>
	<path fill="#F78D2A" d="M86.59,6.091c0,1.317-0.391,2.359-1.176,3.127c-0.783,0.768-1.85,1.152-3.199,1.152
		c-1.467,0-2.622-0.462-3.465-1.388c-0.844-0.925-1.266-2.194-1.266-3.808c0-1.59,0.422-2.851,1.266-3.78
		C79.593,0.465,80.733,0,82.168,0c1.166,0,2.145,0.31,2.932,0.93c0.789,0.62,1.256,1.442,1.402,2.468h-2.051
		c-0.156-0.501-0.432-0.89-0.828-1.166s-0.881-0.414-1.455-0.414c-0.798,0-1.426,0.297-1.884,0.892s-0.687,1.409-0.687,2.444
		c0,1.053,0.238,1.882,0.714,2.488s1.122,0.909,1.938,0.909c0.674,0,1.225-0.182,1.654-0.547c0.428-0.365,0.654-0.845,0.676-1.442
		l0.008-0.178h-2.141V4.833h4.143V6.091z"/>
	<path fill="#F78D2A" d="M90.631,10.117h-2.064V0.253h2.064V10.117z"/>
	<path fill="#F78D2A" d="M97.213,10.37c-1.43,0-2.561-0.464-3.387-1.391c-0.828-0.927-1.24-2.193-1.24-3.797s0.412-2.869,1.24-3.794
		C94.653,0.462,95.784,0,97.213,0c1.168,0,2.152,0.348,2.957,1.042s1.246,1.58,1.322,2.656h-2.01c-0.1-0.57-0.355-1.025-0.77-1.367
		c-0.412-0.342-0.912-0.513-1.5-0.513c-0.773,0-1.387,0.301-1.838,0.902s-0.678,1.422-0.678,2.461s0.227,1.86,0.678,2.464
		s1.066,0.906,1.846,0.906c0.592,0,1.094-0.162,1.504-0.485s0.664-0.756,0.766-1.299h2.01c-0.088,1.066-0.525,1.934-1.316,2.601
		S98.403,10.37,97.213,10.37z"/>
</g>
</svg>
