<svg xmlns="http://www.w3.org/2000/svg" width="19" height="13" viewBox="0 0 19 13">
    <path fill="#FFF" fill-rule="evenodd" d="M12.5 10.996l-6.5.008v.007a2 2 0 1 1-4-.002 2 2 0 0 1-2-2V5.5a2 2 0 0 1 .455-1.27L3.317.75A2 2 0 0 1 4.854.02L9.929 0a2 2 0 0 1 1.733.989l2.363 4.032 1.799.006a2 2 0 0 1 1.73 1.01l1.124 1.972a1.995 1.995 0 0 1-1.731 2.982H16.5v.02a2 2 0 1 1-4-.015zM8.833 1.022a1 1 0 0 0-.983 1v1.992a1 1 0 0 0 .983 1l2.401.04a1 1 0 0 0 .919-1.432l-.845-1.766a1.5 1.5 0 0 0-1.378-.852l-1.097.018zm-3.323.016a1.5 1.5 0 0 0-1.19.588L2.966 3.39a1 1 0 0 0 .794 1.608h1.867a1 1 0 0 0 1-1V1.967a.93.93 0 0 0-.93-.93H5.51z"/>
</svg>
