<svg xmlns="http://www.w3.org/2000/svg" width="20" height="14" viewBox="0 0 20 14">
    <path fill="#FFF" fill-rule="nonzero" d="M3.07 13.703c-1.695 0-2.578-.875-2.578-2.547V6.781c0-.875.125-1.25.531-1.781l2.563-3.414C4.492.375 4.969.039 6.383.039h6.734c1.414 0 1.89.336 2.797 1.547L18.484 5c.399.531.524.906.524 1.781v4.375c0 1.672-.883 2.547-2.57 2.547H3.07zm6.68-4.805c1.188 0 1.93-.945 1.93-1.921v-.063c0-.36.21-.703.656-.703h4.71c.282 0 .337-.234.196-.422l-2.844-3.828c-.328-.453-.742-.625-1.273-.625h-6.75c-.523 0-.938.172-1.273.625L2.258 5.789c-.14.188-.086.422.195.422h4.711c.445 0 .656.344.656.703v.063c0 .976.742 1.921 1.93 1.921zM13.023 2.5c.211 0 .375.172.375.383a.372.372 0 0 1-.375.383H6.484a.374.374 0 0 1-.382-.383c0-.211.164-.383.382-.383h6.54zm1.024 1.742c.219 0 .39.196.39.406a.393.393 0 0 1-.39.399H5.46a.395.395 0 0 1-.399-.399c0-.21.172-.406.399-.406h8.586z"/>
</svg>
