<svg xmlns="http://www.w3.org/2000/svg" xmlns:xlink="http://www.w3.org/1999/xlink" width="62" height="38" viewBox="0 0 62 38">
    <defs>
        <path id="a" d="M.022 37.246V.014H61.21v37.232z"/>
    </defs>
    <g fill="none" fill-rule="evenodd" transform="translate(.5)">
        <mask id="b" fill="#fff">
            <use xlink:href="#a"/>
        </mask>
        <path fill="#0072CE" d="M55.727.012H5.481l-.627.001c-.177.002-.353.004-.53.008-.383.01-.771.031-1.15.096A4.02 4.02 0 0 0 2.08.46a3.677 3.677 0 0 0-.933.643A3.502 3.502 0 0 0 .111 3.029c-.07.36-.092.728-.102 1.093-.005.168-.007.335-.008.502L0 5.221v27.413c.002.168.004.335.009.503.01.364.033.732.102 1.093a3.5 3.5 0 0 0 1.037 1.926c.273.259.587.476.932.642.35.17.708.278 1.094.344.379.064.767.086 1.15.096.177.003.353.006.53.007H56.355c.176-.001.352-.004.53-.007.383-.01.77-.032 1.15-.096a4.029 4.029 0 0 0 1.094-.344c.344-.166.658-.383.932-.643.273-.26.501-.558.677-.885.178-.333.291-.674.36-1.04.069-.36.09-.729.101-1.093.005-.168.007-.335.008-.503.002-.199.002-.397.002-.597V5.221c0-.2 0-.398-.002-.597a22.771 22.771 0 0 0-.008-.502 6.879 6.879 0 0 0-.101-1.093 3.522 3.522 0 0 0-.36-1.04 3.519 3.519 0 0 0-.677-.886 3.682 3.682 0 0 0-.932-.643 4.027 4.027 0 0 0-1.094-.343 8.061 8.061 0 0 0-1.15-.096 29.679 29.679 0 0 0-.53-.008h-.628" mask="url(#b)"/>
        <path fill="#FFF" d="M61.538 23.08h-3.174c-.317 0-.528.012-.705.127-.184.113-.255.282-.255.504a.53.53 0 0 0 .381.52c.184.062.381.08.671.08l.944.024c.953.023 1.589.18 1.977.563.07.053.112.113.161.173v-1.99zm0 4.613c-.423.593-1.247.894-2.364.894h-3.363v-1.5h3.35c.332 0 .565-.042.705-.173a.604.604 0 0 0 .206-.456.565.565 0 0 0-.213-.463c-.127-.106-.31-.155-.614-.155-1.635-.053-3.676.049-3.676-2.165 0-1.015.672-2.083 2.5-2.083h3.469v-1.391h-3.224c-.972 0-1.679.223-2.18.57v-.57h-4.767c-.763 0-1.658.181-2.081.57v-.57h-8.514v.57c-.678-.468-1.821-.57-2.349-.57h-5.616v.57c-.536-.497-1.728-.57-2.455-.57h-6.285l-1.438 1.494-1.347-1.494h-9.39v9.76h9.213l1.482-1.517 1.396 1.517 5.678.005V27.67h.559c.753.011 1.642-.018 2.426-.343v2.634h4.683v-2.544h.226c.289 0 .317.012.317.288v2.256H52.1c.904 0 1.848-.222 2.37-.625v.625h4.514c.94 0 1.856-.127 2.554-.45v-1.818zm-6.948-2.795c.34.337.521.762.521 1.482 0 1.505-.98 2.207-2.736 2.207h-3.392v-1.5h3.378c.33 0 .565-.042.712-.173a.61.61 0 0 0-.007-.919c-.133-.106-.317-.155-.62-.155-1.629-.053-3.669.049-3.669-2.165 0-1.015.664-2.083 2.49-2.083h3.492v1.49h-3.195c-.317 0-.523.01-.698.126-.19.113-.261.281-.261.503 0 .264.162.443.38.521.185.061.382.08.679.08l.937.024c.946.022 1.595.179 1.99.562zm-15.716-.432c-.233.133-.521.144-.86.144h-2.116v-1.57h2.144c.31 0 .62.005.832.125.225.114.36.33.36.63 0 .299-.135.54-.36.671zm1.052.87c.387.138.704.384.853.588.246.341.281.66.288 1.277v1.386H39.32v-.875c0-.42.042-1.044-.282-1.369-.254-.25-.642-.31-1.278-.31h-1.861v2.554h-1.75v-6.995h4.021c.882 0 1.524.038 2.096.33.55.32.895.756.895 1.554a1.963 1.963 0 0 1-1.234 1.86zm2.2-3.744h5.813v1.447H43.86v1.272h3.98v1.427h-3.98v1.392l4.08.006v1.451h-5.814v-6.995zM30.374 24.82h-2.25v-1.78h2.27c.63 0 1.066.245 1.066.857 0 .605-.416.923-1.086.923zm-3.985 3.131l-2.674-2.85 2.674-2.758v5.608zm-6.906-.821H15.2v-1.392h3.824V24.31H15.2v-1.272h4.367l1.905 2.038-1.99 2.053zm13.847-3.233c0 1.943-1.51 2.344-3.033 2.344h-2.173v2.346h-3.386l-2.144-2.315-2.23 2.315h-6.899v-6.995h7.006l2.143 2.293 2.215-2.293h5.566c1.382 0 2.935.368 2.935 2.305zM5.155 13.531l-1.192-2.788-1.185 2.788h2.377zm26.263-1.11c-.24.14-.522.144-.862.144h-2.115v-1.553h2.144c.304 0 .62.013.826.126.226.102.366.318.366.618 0 .306-.133.552-.359.665zm15.095 1.11l-1.206-2.788-1.198 2.788h2.404zm-28.138 3.018H16.59l-.007-5.477-2.525 5.477h-1.53l-2.532-5.482v5.482H6.454l-.67-1.56H2.158l-.676 1.56H-.41l3.119-6.994h2.588l2.962 6.622V9.555h2.843l2.28 4.744 2.093-4.744h2.9v6.994zm7.117 0h-5.819V9.555h5.819v1.457h-4.077v1.26h3.98v1.434h-3.98v1.396h4.077v1.447zm8.204-5.11a1.972 1.972 0 0 1-1.228 1.864c.381.139.707.385.862.589.246.348.288.658.288 1.283v1.374h-1.756l-.007-.882c0-.421.042-1.026-.275-1.363-.255-.246-.642-.299-1.27-.299h-1.87v2.544H26.7V9.555h4.005c.89 0 1.546.023 2.11.335.55.313.88.769.88 1.549zm2.787 5.11h-1.777V9.555h1.777v6.994zm20.618 0h-2.468l-3.302-5.25v5.25h-3.547l-.678-1.56h-3.618l-.657 1.56h-2.039c-.846 0-1.918-.18-2.525-.774-.612-.594-.93-1.398-.93-2.67 0-1.037.19-1.985.938-2.734.563-.558 1.445-.816 2.645-.816h1.687v1.499h-1.651c-.636 0-.995.09-1.34.414-.297.295-.501.851-.501 1.584 0 .75.155 1.29.479 1.643.268.276.755.36 1.214.36h.782l2.455-5.5h2.61l2.948 6.615V9.555h2.652l3.062 4.871v-4.87H57.1v6.993zM-.43 17.922h2.976l.67-1.553H4.72l.67 1.553h5.855v-1.187l.522 1.192h3.04l.523-1.21v1.205H29.88l-.006-2.55h.281c.197.007.255.025.255.337v2.213h7.526v-.593c.607.312 1.551.593 2.794.593h3.166l.678-1.553h1.502l.663 1.553h6.101v-1.475l.924 1.475h4.89V8.17h-4.84V9.32l-.677-1.152h-4.965V9.32l-.622-1.152h-6.707c-1.123 0-2.11.15-2.907.57v-.57h-4.628v.57c-.508-.433-1.199-.57-1.967-.57H14.43l-1.134 2.519-1.165-2.52H6.806v1.153l-.585-1.152H1.679l-2.11 4.637v5.116z" mask="url(#b)"/>
    </g>
</svg>
