<svg xmlns="http://www.w3.org/2000/svg" width="17" height="16" viewBox="0 0 17 16">
    <path fill="#FFF" fill-rule="evenodd" d="M.103 1.05C.155.394.74.321 1.24.85c.895.981 2.254 1.181 3.734 1.181 1.187 0 2.46-.29 3.733-.29 3.872 0 6.59 1.745 6.59 5.8a6.3 6.3 0 0 1-.034.618c0 .582-.447.636-.877.29-3.27-2.872-6.814-.727-9.378-3.436-.086-.09-.155-.145-.275-.145-.103 0-.207.109-.207.254 0 .036.018.091.035.164C5.78 8.94 11.133 7.03 14.59 10.304c.826.782 2.409 2.691 2.409 3.982 0 .491-.155.728-.585.928l-.482.236c-.206.127-.447 0-.533-.254-.602-1.837-.981-3.037-1.704-4.073-.86 1.8-2.856 2.872-5.007 2.872C3.77 13.995 0 9.486 0 3.14c0-.673.052-1.364.103-2.09z"/>
</svg>
