<svg xmlns="http://www.w3.org/2000/svg" width="229" height="229" viewBox="0 0 229 229">
    <g fill="none" fill-rule="evenodd">
        <path fill="#FFF" d="M-437-69H587V950H-437z"/>
        <path fill="#5856D6" d="M108.333 100h12.334c2.898 0 3.948.302 5.008.868a5.906 5.906 0 0 1 2.457 2.457c.566 1.06.868 2.11.868 5.008v12.334c0 2.898-.302 3.948-.868 5.008a5.906 5.906 0 0 1-2.457 2.457c-1.06.566-2.11.868-5.008.868h-12.334c-2.898 0-3.948-.302-5.008-.868a5.906 5.906 0 0 1-2.457-2.457c-.566-1.06-.868-2.11-.868-5.008v-12.334c0-2.898.302-3.948.868-5.008a5.906 5.906 0 0 1 2.457-2.457c1.06-.566 2.11-.868 5.008-.868z"/>
        <path fill="#FFF" d="M117.5 118.985l-6.5.008V119a2 2 0 1 1-4-.002 2 2 0 0 1-2-2v-3.509a2 2 0 0 1 .455-1.27l2.862-3.48a2 2 0 0 1 1.537-.73l5.075-.02a2 2 0 0 1 1.733.989l2.363 4.031 1.799.007a2 2 0 0 1 1.73 1.01l1.124 1.972a1.995 1.995 0 0 1-1.731 2.982h-.447v.02a2 2 0 1 1-4-.015zm-3.667-9.975a1 1 0 0 0-.983 1v1.993a1 1 0 0 0 .983 1l2.401.04a1 1 0 0 0 .919-1.432l-.845-1.766a1.5 1.5 0 0 0-1.378-.853l-1.097.018zm-3.323.017a1.5 1.5 0 0 0-1.19.587l-1.353 1.765a1 1 0 0 0 .794 1.608h1.867a1 1 0 0 0 1-1v-2.031a.93.93 0 0 0-.93-.93h-.188z"/>
    </g>
</svg>
