<svg xmlns="http://www.w3.org/2000/svg" width="22" height="11" viewBox="0 0 22 11">
    <path fill="#FFF" fill-rule="evenodd" d="M16 8.992l-7.5.006V9a2 2 0 0 1-4 .002l-2.512.002A1.5 1.5 0 0 1 .486 7.516L.44 1.58A1.5 1.5 0 0 1 1.935.068L19.923.012a1.5 1.5 0 0 1 1.504 1.5v5.977A1.5 1.5 0 0 1 20 8.987V9a2 2 0 1 1-4-.008zm2.525-7.962a1 1 0 0 0-1 .987l-.012 1a1 1 0 0 0 1 1.013h.987a1 1 0 0 0 1-1v-1a1 1 0 0 0-1-1h-.975zm-12-.03a1 1 0 0 0-1 .987l-.012 1a1 1 0 0 0 1 1.013H7.5a1 1 0 0 0 1-1V2a1 1 0 0 0-1-1h-.975zm-4 0a1 1 0 0 0-1 .987l-.012 1a1 1 0 0 0 1 1.013H3.5a1 1 0 0 0 1-1V2a1 1 0 0 0-1-1h-.975zm8 0a1 1 0 0 0-1 .987l-.012 1a1 1 0 0 0 1 1.013h.987a1 1 0 0 0 1-1V2a1 1 0 0 0-1-1h-.975zm4.007 0a1 1 0 0 0-1 .995l-.027 5V7a1 1 0 0 0 1 1h.995a1 1 0 0 0 1-1V2a1 1 0 0 0-1-1h-.968z"/>
</svg>
