<svg xmlns="http://www.w3.org/2000/svg" width="19" height="14" viewBox="0 0 19 14">
    <path fill="#FFF" fill-rule="evenodd" d="M12.5 11.985l-6.5.008V12a2 2 0 1 1-4-.002 2 2 0 0 1-2-2V6.489a2 2 0 0 1 .455-1.27l2.862-3.48a2 2 0 0 1 1.537-.73L9.929.99a2 2 0 0 1 1.733.989l2.363 4.031 1.799.007a2 2 0 0 1 1.73 1.01l1.124 1.972a1.995 1.995 0 0 1-1.731 2.982H16.5V12a2 2 0 1 1-4-.015zM7.844 2.02a1.5 1.5 0 0 0-1.476 1.489l-.011 1.578a.998.998 0 0 0 1.005 1.007l3.444-.017a1 1 0 0 0 .906-1.413l-.813-1.79a1.5 1.5 0 0 0-1.39-.88l-1.665.026z"/>
</svg>
