<svg xmlns="http://www.w3.org/2000/svg" width="21" height="15" viewBox="0 0 21 15">
    <g fill="none" fill-rule="evenodd" transform="translate(-.5 -.5)">
        <path fill="#FFF" d="M15.894 2.228L19 .676v4l-3.106-1.553a.5.5 0 0 1 0-.895z"/>
        <path stroke="#FFF" stroke-linecap="round" stroke-linejoin="round" stroke-width="2" d="M11.871 1.828l4 .013-.018 3.987"/>
        <circle cx="5.5" cy="11.676" r="2.25" fill="#FFF" stroke="#FFF" stroke-width="1.5"/>
        <circle cx="17" cy="11.676" r="2.25" fill="#FFF" stroke="#FFF" stroke-width="1.5"/>
        <path fill="#FFF" d="M17.382 7.08c-.39.05-.567-.537-.532-1.762.035-1.225-.596-2.185-1.895-2.881-.183 3.995-.593 6.236-1.229 6.722-.636.487-1.606.618-2.908.393l-.067-2.864a1 1 0 0 0-.996-.976 137.814 137.814 0 0 0-3.134.008C1.072 5.874.697 10.332.75 11.427c0 .022 12.384.163 13.23.132.564-.02 1.098-.348 1.601-.981h4.696a.5.5 0 0 0 .494-.572c-.117-.804-.465-1.468-1.045-1.994-.713-.645-1.494-.955-2.345-.931z"/>
    </g>
</svg>
