<svg xmlns="http://www.w3.org/2000/svg" width="20" height="15" viewBox="0 0 20 15">
    <path fill="#FFF" fill-rule="evenodd" d="M15.13 12.433a2.01 2.01 0 0 1-.204.01h-3.51a2 2 0 1 1-3.88 0H3.318a2 2 0 0 1-1.898-1.368L.214 7.45a3 3 0 0 1-.003-1.884l1.212-3.682A2 2 0 0 1 3.32.509L14.557.501a2 2 0 0 1 1.9 1.372l1.266 3.825a3 3 0 0 1 .057 1.692l-.785 3.043h1.48a1 1 0 1 1 0 2H15.13zm-5.269-9.95a1 1 0 0 0-1 1V6.03a1 1 0 0 0 1.004.996l3.969-.017a1 1 0 0 0 .996-.99l.022-2.526a1.001 1.001 0 0 0-1-1.01h-3.99z"/>
</svg>
