<svg xmlns="http://www.w3.org/2000/svg" width="21" height="15" viewBox="0 0 21 15">
    <path fill="#FFF" fill-rule="evenodd" d="M15 12.494l-1.489.004a2.02 2.02 0 0 1-.25-.016l-1.761.003v.015a2 2 0 1 1-4-.01H7v.01a2 2 0 1 1-4-.004h-.418A2 2 0 0 1 .58 10.5L.566 2.58A2 2 0 0 1 2.555.577l11.99-.066a2 2 0 0 1 2.011 2.006l-.003 1.012 2.433-.018a1.5 1.5 0 0 1 1.51 1.503l-.014 6.474a1 1 0 0 1-.998.997l-.484.001v.014a2 2 0 1 1-4-.006zm2.525-7.924a1 1 0 0 0-1 .988l-.012 1a1 1 0 0 0 1 1.012h.987a1 1 0 0 0 1-1v-1a1 1 0 0 0-1-1h-.975z"/>
</svg>
