<svg xmlns="http://www.w3.org/2000/svg" width="105" height="80" fill="none" viewBox="0 0 105 80">
    <path fill="#fff" d="M15 5h75v50H15z" filter="url(#a)"/>
    <path fill="#646F7C" d="M57.161 22.254a.847.847 0 0 0-1.21 0 .853.853 0 0 0 0 1.197l6.134 6.133H41.847a.843.843 0 0 0-.847.848c0 .471.375.859.847.859h20.238l-6.133 6.121a.868.868 0 0 0 0 1.21.847.847 0 0 0 1.21 0l7.584-7.585a.833.833 0 0 0 0-1.198l-7.585-7.585z"/>
    <defs>
        <filter id="a" width="105" height="80" x="0" y="0" color-interpolation-filters="sRGB" filterUnits="userSpaceOnUse">
            <feFlood flood-opacity="0" result="BackgroundImageFix"/>
            <feColorMatrix in="SourceAlpha" values="0 0 0 0 0 0 0 0 0 0 0 0 0 0 0 0 0 0 127 0"/>
            <feOffset dy="10"/>
            <feGaussianBlur stdDeviation="7.5"/>
            <feColorMatrix values="0 0 0 0 0 0 0 0 0 0 0 0 0 0 0 0 0 0 0.08 0"/>
            <feBlend in2="BackgroundImageFix" result="effect1_dropShadow"/>
            <feBlend in="SourceGraphic" in2="effect1_dropShadow" result="shape"/>
        </filter>
    </defs>
</svg>
