<svg xmlns="http://www.w3.org/2000/svg" width="1660" height="466" fill="none" viewBox="0 0 1660 466">
    <path fill="url(#a)" d="M146.361 109.345h1366.57V336.44H146.361z"/>
    <rect width="414.392" height="150.169" x="83.678" y="90.337" fill="#FFFEFE" fill-opacity=".08" rx="50" transform="rotate(44.038 83.678 90.337)"/>
    <rect width="374.295" height="140.978" x="1377.84" y="-20.709" fill="#FFFEFE" fill-opacity=".12" rx="50" transform="rotate(44.038 1377.84 -20.71)"/>
    <g fill="#fff" fill-opacity=".56" opacity=".2">
        <path d="M1656.24 135.181c2.08 0 3.76-1.682 3.76-3.758a3.757 3.757 0 0 0-3.76-3.759 3.764 3.764 0 0 0-3.76 3.759 3.763 3.763 0 0 0 3.76 3.758zM1618.65 97.593c2.08 0 3.76-1.683 3.76-3.76a3.757 3.757 0 0 0-3.76-3.758 3.764 3.764 0 0 0-3.76 3.759 3.764 3.764 0 0 0 3.76 3.759zM1581.06 135.181c2.08 0 3.76-1.682 3.76-3.758a3.755 3.755 0 0 0-7.51 0 3.754 3.754 0 0 0 3.75 3.758zM1656.24 285.536c2.08 0 3.76-1.683 3.76-3.759a3.757 3.757 0 0 0-3.76-3.759 3.764 3.764 0 0 0-3.76 3.759 3.764 3.764 0 0 0 3.76 3.759zM1656.24 210.359c2.08 0 3.76-1.683 3.76-3.759a3.757 3.757 0 0 0-3.76-3.759 3.764 3.764 0 0 0-3.76 3.759 3.764 3.764 0 0 0 3.76 3.759zM1618.65 247.947c2.08 0 3.76-1.683 3.76-3.759a3.756 3.756 0 0 0-3.76-3.758 3.763 3.763 0 0 0-3.76 3.758 3.764 3.764 0 0 0 3.76 3.759zM1618.65 172.77c2.08 0 3.76-1.683 3.76-3.759a3.757 3.757 0 0 0-3.76-3.759 3.764 3.764 0 0 0-3.76 3.759 3.764 3.764 0 0 0 3.76 3.759zM1581.06 285.536c2.08 0 3.76-1.683 3.76-3.759a3.755 3.755 0 0 0-7.51 0 3.755 3.755 0 0 0 3.75 3.759zM1581.06 210.359c2.08 0 3.76-1.683 3.76-3.759a3.755 3.755 0 0 0-7.51 0 3.755 3.755 0 0 0 3.75 3.759zM1618.65 323.124c2.08 0 3.76-1.682 3.76-3.758a3.757 3.757 0 0 0-3.76-3.759 3.764 3.764 0 0 0-3.76 3.759 3.763 3.763 0 0 0 3.76 3.758zM1505.89 135.181c2.07 0 3.76-1.682 3.76-3.758a3.764 3.764 0 0 0-3.76-3.759 3.757 3.757 0 0 0-3.76 3.759 3.756 3.756 0 0 0 3.76 3.758zM1543.48 97.593c2.07 0 3.75-1.683 3.75-3.76a3.755 3.755 0 1 0-7.51 0 3.757 3.757 0 0 0 3.76 3.76zM1468.3 97.593c2.07 0 3.76-1.683 3.76-3.76a3.764 3.764 0 0 0-3.76-3.758 3.757 3.757 0 0 0-3.76 3.759 3.757 3.757 0 0 0 3.76 3.759zM1430.71 135.181c2.08 0 3.76-1.682 3.76-3.758a3.757 3.757 0 0 0-3.76-3.759 3.757 3.757 0 0 0-3.76 3.759 3.756 3.756 0 0 0 3.76 3.758zM1505.89 285.536c2.07 0 3.76-1.683 3.76-3.759a3.764 3.764 0 0 0-3.76-3.759 3.757 3.757 0 0 0-3.76 3.759 3.757 3.757 0 0 0 3.76 3.759zM1505.89 210.359c2.07 0 3.76-1.683 3.76-3.759a3.764 3.764 0 0 0-3.76-3.759 3.757 3.757 0 0 0-3.76 3.759 3.757 3.757 0 0 0 3.76 3.759zM1543.48 247.947c2.07 0 3.75-1.683 3.75-3.759a3.754 3.754 0 1 0-7.51 0 3.757 3.757 0 0 0 3.76 3.759zM1468.3 247.947c2.07 0 3.76-1.683 3.76-3.759a3.763 3.763 0 0 0-3.76-3.758 3.756 3.756 0 0 0-3.76 3.758 3.757 3.757 0 0 0 3.76 3.759zM1543.48 172.77c2.07 0 3.75-1.683 3.75-3.759a3.755 3.755 0 1 0-7.51 0 3.757 3.757 0 0 0 3.76 3.759zM1468.3 172.77c2.07 0 3.76-1.683 3.76-3.759a3.764 3.764 0 0 0-3.76-3.759 3.757 3.757 0 0 0-3.76 3.759 3.757 3.757 0 0 0 3.76 3.759zM1430.71 285.536c2.08 0 3.76-1.683 3.76-3.759a3.757 3.757 0 0 0-3.76-3.759 3.757 3.757 0 0 0-3.76 3.759 3.757 3.757 0 0 0 3.76 3.759zM1430.71 210.359c2.08 0 3.76-1.683 3.76-3.759a3.757 3.757 0 0 0-3.76-3.759 3.757 3.757 0 0 0-3.76 3.759 3.757 3.757 0 0 0 3.76 3.759zM1543.48 323.124c2.07 0 3.75-1.682 3.75-3.758a3.755 3.755 0 1 0-7.51 0 3.756 3.756 0 0 0 3.76 3.758zM1468.3 323.124c2.07 0 3.76-1.682 3.76-3.758a3.764 3.764 0 0 0-3.76-3.759 3.757 3.757 0 0 0-3.76 3.759 3.756 3.756 0 0 0 3.76 3.758zM1355.53 135.181c2.08 0 3.76-1.682 3.76-3.758a3.757 3.757 0 0 0-3.76-3.759 3.764 3.764 0 0 0-3.76 3.759 3.763 3.763 0 0 0 3.76 3.758zM1393.12 97.593c2.08 0 3.76-1.683 3.76-3.76a3.757 3.757 0 0 0-3.76-3.758 3.757 3.757 0 0 0-3.76 3.759 3.757 3.757 0 0 0 3.76 3.759zM1317.94 97.593c2.08 0 3.76-1.683 3.76-3.76a3.757 3.757 0 0 0-3.76-3.758 3.764 3.764 0 0 0-3.76 3.759 3.764 3.764 0 0 0 3.76 3.759zM1280.36 135.181c2.07 0 3.75-1.682 3.75-3.758a3.755 3.755 0 1 0-7.51 0 3.756 3.756 0 0 0 3.76 3.758zM1355.53 285.536c2.08 0 3.76-1.683 3.76-3.759a3.757 3.757 0 0 0-3.76-3.759 3.764 3.764 0 0 0-3.76 3.759 3.764 3.764 0 0 0 3.76 3.759zM1355.53 210.359c2.08 0 3.76-1.683 3.76-3.759a3.757 3.757 0 0 0-3.76-3.759 3.764 3.764 0 0 0-3.76 3.759 3.764 3.764 0 0 0 3.76 3.759zM1393.12 247.947c2.08 0 3.76-1.683 3.76-3.759a3.756 3.756 0 0 0-3.76-3.758 3.756 3.756 0 0 0-3.76 3.758 3.757 3.757 0 0 0 3.76 3.759zM1317.94 247.947c2.08 0 3.76-1.683 3.76-3.759a3.756 3.756 0 0 0-3.76-3.758 3.763 3.763 0 0 0-3.76 3.758 3.764 3.764 0 0 0 3.76 3.759zM1393.12 172.77c2.08 0 3.76-1.683 3.76-3.759a3.757 3.757 0 0 0-3.76-3.759 3.757 3.757 0 0 0-3.76 3.759 3.757 3.757 0 0 0 3.76 3.759zM1317.94 172.77c2.08 0 3.76-1.683 3.76-3.759a3.757 3.757 0 0 0-3.76-3.759 3.764 3.764 0 0 0-3.76 3.759 3.764 3.764 0 0 0 3.76 3.759zM1280.36 285.536c2.07 0 3.75-1.683 3.75-3.759a3.755 3.755 0 1 0-7.51 0 3.757 3.757 0 0 0 3.76 3.759zM1280.36 210.359c2.07 0 3.75-1.683 3.75-3.759a3.755 3.755 0 1 0-7.51 0 3.757 3.757 0 0 0 3.76 3.759zM1393.12 323.124c2.08 0 3.76-1.682 3.76-3.758a3.757 3.757 0 0 0-3.76-3.759 3.757 3.757 0 0 0-3.76 3.759 3.756 3.756 0 0 0 3.76 3.758zM1317.94 323.124c2.08 0 3.76-1.682 3.76-3.758a3.757 3.757 0 0 0-3.76-3.759 3.764 3.764 0 0 0-3.76 3.759 3.763 3.763 0 0 0 3.76 3.758zM1205.18 135.181c2.07 0 3.76-1.682 3.76-3.758a3.764 3.764 0 0 0-3.76-3.759 3.757 3.757 0 0 0-3.76 3.759 3.756 3.756 0 0 0 3.76 3.758zM1242.77 97.593c2.07 0 3.76-1.683 3.76-3.76a3.764 3.764 0 0 0-3.76-3.758 3.757 3.757 0 0 0-3.76 3.759 3.757 3.757 0 0 0 3.76 3.759zM1167.59 97.593c2.08 0 3.76-1.683 3.76-3.76a3.757 3.757 0 0 0-3.76-3.758 3.757 3.757 0 0 0-3.76 3.759 3.757 3.757 0 0 0 3.76 3.759zM1130 135.181c2.08 0 3.76-1.682 3.76-3.758a3.757 3.757 0 0 0-3.76-3.759 3.757 3.757 0 0 0-3.76 3.759 3.756 3.756 0 0 0 3.76 3.758zM1205.18 285.536c2.07 0 3.76-1.683 3.76-3.759a3.764 3.764 0 0 0-3.76-3.759 3.757 3.757 0 0 0-3.76 3.759 3.757 3.757 0 0 0 3.76 3.759zM1205.18 210.359c2.07 0 3.76-1.683 3.76-3.759a3.764 3.764 0 0 0-3.76-3.759 3.757 3.757 0 0 0-3.76 3.759 3.757 3.757 0 0 0 3.76 3.759zM1242.77 247.947c2.07 0 3.76-1.683 3.76-3.759a3.763 3.763 0 0 0-3.76-3.758 3.756 3.756 0 0 0-3.76 3.758 3.757 3.757 0 0 0 3.76 3.759zM1167.59 247.947c2.08 0 3.76-1.683 3.76-3.759a3.756 3.756 0 0 0-3.76-3.758 3.756 3.756 0 0 0-3.76 3.758 3.757 3.757 0 0 0 3.76 3.759zM1242.77 172.77c2.07 0 3.76-1.683 3.76-3.759a3.764 3.764 0 0 0-3.76-3.759 3.757 3.757 0 0 0-3.76 3.759 3.757 3.757 0 0 0 3.76 3.759zM1167.59 172.77c2.08 0 3.76-1.683 3.76-3.759a3.757 3.757 0 0 0-3.76-3.759 3.757 3.757 0 0 0-3.76 3.759 3.757 3.757 0 0 0 3.76 3.759zM1130 285.536c2.08 0 3.76-1.683 3.76-3.759a3.757 3.757 0 0 0-3.76-3.759 3.757 3.757 0 0 0-3.76 3.759 3.757 3.757 0 0 0 3.76 3.759zM1130 210.359c2.08 0 3.76-1.683 3.76-3.759a3.757 3.757 0 0 0-3.76-3.759 3.757 3.757 0 0 0-3.76 3.759 3.757 3.757 0 0 0 3.76 3.759zM1242.77 323.124c2.07 0 3.76-1.682 3.76-3.758a3.764 3.764 0 0 0-3.76-3.759 3.757 3.757 0 0 0-3.76 3.759 3.756 3.756 0 0 0 3.76 3.758zM1167.59 323.124c2.08 0 3.76-1.682 3.76-3.758a3.757 3.757 0 0 0-3.76-3.759 3.757 3.757 0 0 0-3.76 3.759 3.756 3.756 0 0 0 3.76 3.758zM1054.82 135.181c2.08 0 3.76-1.682 3.76-3.758a3.757 3.757 0 0 0-3.76-3.759 3.764 3.764 0 0 0-3.76 3.759 3.763 3.763 0 0 0 3.76 3.758zM1092.41 97.593c2.08 0 3.76-1.683 3.76-3.76a3.757 3.757 0 0 0-3.76-3.758 3.764 3.764 0 0 0-3.76 3.759 3.764 3.764 0 0 0 3.76 3.759zM1017.23 97.593c2.08 0 3.76-1.683 3.76-3.76a3.755 3.755 0 0 0-7.51 0 3.755 3.755 0 0 0 3.75 3.76zM979.646 135.181a3.758 3.758 0 1 0-3.759-3.758 3.758 3.758 0 0 0 3.759 3.758zM1054.82 285.536c2.08 0 3.76-1.683 3.76-3.759a3.757 3.757 0 0 0-3.76-3.759 3.764 3.764 0 0 0-3.76 3.759 3.764 3.764 0 0 0 3.76 3.759zM1054.82 210.359c2.08 0 3.76-1.683 3.76-3.759a3.757 3.757 0 0 0-3.76-3.759 3.764 3.764 0 0 0-3.76 3.759 3.764 3.764 0 0 0 3.76 3.759zM1092.41 247.947c2.08 0 3.76-1.683 3.76-3.759a3.756 3.756 0 0 0-3.76-3.758 3.763 3.763 0 0 0-3.76 3.758 3.764 3.764 0 0 0 3.76 3.759zM1017.23 247.947c2.08 0 3.76-1.683 3.76-3.759a3.754 3.754 0 1 0-7.51 0 3.755 3.755 0 0 0 3.75 3.759zM1092.41 172.77c2.08 0 3.76-1.683 3.76-3.759a3.757 3.757 0 0 0-3.76-3.759 3.764 3.764 0 0 0-3.76 3.759 3.764 3.764 0 0 0 3.76 3.759zM1017.23 172.77c2.08 0 3.76-1.683 3.76-3.759a3.755 3.755 0 0 0-7.51 0 3.755 3.755 0 0 0 3.75 3.759zM979.646 285.536a3.759 3.759 0 1 0 0-7.518 3.759 3.759 0 0 0 0 7.518zM979.646 210.359a3.759 3.759 0 1 0 0-7.518 3.759 3.759 0 0 0 0 7.518zM1092.41 323.124c2.08 0 3.76-1.682 3.76-3.758a3.757 3.757 0 0 0-3.76-3.759 3.764 3.764 0 0 0-3.76 3.759 3.763 3.763 0 0 0 3.76 3.758zM1017.23 323.124c2.08 0 3.76-1.682 3.76-3.758a3.755 3.755 0 0 0-7.51 0 3.754 3.754 0 0 0 3.75 3.758zM904.469 135.181a3.758 3.758 0 1 0-3.759-3.758 3.758 3.758 0 0 0 3.759 3.758zM942.057 97.593a3.759 3.759 0 1 0 0-7.518 3.759 3.759 0 0 0 0 7.518zM866.877 97.593a3.759 3.759 0 1 0 0-7.518 3.759 3.759 0 0 0 0 7.518zM829.289 135.181a3.758 3.758 0 1 0 0-7.518 3.758 3.758 0 0 0 0 7.518zM904.469 285.536a3.759 3.759 0 1 0 0-7.518 3.759 3.759 0 0 0 0 7.518zM904.469 210.359a3.759 3.759 0 1 0 0-7.518 3.759 3.759 0 0 0 0 7.518zM942.057 247.947a3.759 3.759 0 1 0 0-7.518 3.759 3.759 0 0 0 0 7.518zM866.877 247.947a3.759 3.759 0 1 0 0-7.518 3.759 3.759 0 0 0 0 7.518zM942.057 172.77a3.759 3.759 0 1 0 0-7.518 3.759 3.759 0 0 0 0 7.518zM866.877 172.77a3.759 3.759 0 1 0 0-7.518 3.759 3.759 0 0 0 0 7.518zM829.289 285.536a3.758 3.758 0 0 0 3.758-3.759 3.758 3.758 0 1 0-3.758 3.759zM829.289 210.359a3.758 3.758 0 0 0 3.758-3.759 3.758 3.758 0 1 0-3.758 3.759zM942.057 323.124a3.758 3.758 0 1 0 .002-7.516 3.758 3.758 0 0 0-.002 7.516zM866.877 323.124a3.758 3.758 0 1 0-3.759-3.758 3.758 3.758 0 0 0 3.759 3.758zM754.111 135.181a3.758 3.758 0 1 0 .002-7.516 3.758 3.758 0 0 0-.002 7.516zM791.7 97.593a3.759 3.759 0 1 0 0-7.518 3.759 3.759 0 0 0 0 7.518zM716.523 97.593a3.759 3.759 0 1 0 0-7.518 3.759 3.759 0 0 0 0 7.518zM678.934 135.181a3.758 3.758 0 1 0-3.759-3.758 3.758 3.758 0 0 0 3.759 3.758zM754.111 285.536a3.759 3.759 0 1 0 0-7.518 3.759 3.759 0 0 0 0 7.518zM754.111 210.359a3.759 3.759 0 1 0 0-7.518 3.759 3.759 0 0 0 0 7.518zM791.7 247.947a3.759 3.759 0 1 0 0-7.518 3.759 3.759 0 0 0 0 7.518zM716.523 247.947a3.759 3.759 0 1 0 0-7.518 3.759 3.759 0 0 0 0 7.518zM791.7 172.77a3.759 3.759 0 1 0 0-7.518 3.759 3.759 0 0 0 0 7.518zM716.523 172.77a3.759 3.759 0 1 0 0-7.518 3.759 3.759 0 0 0 0 7.518zM678.934 285.536a3.759 3.759 0 1 0 0-7.518 3.759 3.759 0 0 0 0 7.518zM678.934 210.359a3.759 3.759 0 1 0 0-7.518 3.759 3.759 0 0 0 0 7.518zM791.7 323.124a3.758 3.758 0 1 0-3.759-3.758 3.758 3.758 0 0 0 3.759 3.758zM716.523 323.124a3.758 3.758 0 1 0-3.759-3.758 3.758 3.758 0 0 0 3.759 3.758zM603.757 135.181a3.758 3.758 0 1 0-3.759-3.758 3.758 3.758 0 0 0 3.759 3.758zM641.346 97.593a3.758 3.758 0 1 0 0-7.516 3.758 3.758 0 0 0 0 7.516zM566.168 97.593a3.759 3.759 0 1 0 0-7.518 3.759 3.759 0 0 0 0 7.518zM528.58 135.181a3.758 3.758 0 1 0-3.759-3.758 3.758 3.758 0 0 0 3.759 3.758zM603.757 285.536a3.759 3.759 0 1 0 0-7.518 3.759 3.759 0 0 0 0 7.518zM603.757 210.359a3.759 3.759 0 1 0 0-7.518 3.759 3.759 0 0 0 0 7.518zM641.346 247.947a3.758 3.758 0 1 0 0-7.516 3.758 3.758 0 0 0 0 7.516zM566.168 247.947a3.759 3.759 0 1 0 0-7.518 3.759 3.759 0 0 0 0 7.518zM641.346 172.77a3.758 3.758 0 0 0 3.758-3.759 3.758 3.758 0 1 0-3.758 3.759zM566.168 172.77a3.759 3.759 0 1 0 0-7.518 3.759 3.759 0 0 0 0 7.518zM528.58 285.536a3.759 3.759 0 1 0 0-7.518 3.759 3.759 0 0 0 0 7.518zM528.58 210.359a3.759 3.759 0 1 0 0-7.518 3.759 3.759 0 0 0 0 7.518zM641.346 323.124a3.758 3.758 0 1 0 0-7.518 3.758 3.758 0 0 0 0 7.518zM566.168 323.124a3.758 3.758 0 1 0-3.759-3.758 3.758 3.758 0 0 0 3.759 3.758zM453.402 135.181a3.758 3.758 0 1 0 .002-7.516 3.758 3.758 0 0 0-.002 7.516zM490.991 97.593a3.759 3.759 0 1 0 0-7.518 3.759 3.759 0 0 0 0 7.518zM415.814 97.593a3.759 3.759 0 1 0 0-7.518 3.759 3.759 0 0 0 0 7.518zM378.225 135.181a3.758 3.758 0 1 0-3.759-3.758 3.758 3.758 0 0 0 3.759 3.758zM453.402 285.536a3.759 3.759 0 1 0 0-7.518 3.759 3.759 0 0 0 0 7.518zM453.402 210.359a3.759 3.759 0 1 0 0-7.518 3.759 3.759 0 0 0 0 7.518zM490.991 247.947a3.759 3.759 0 1 0 0-7.518 3.759 3.759 0 0 0 0 7.518zM415.814 247.947a3.759 3.759 0 1 0 0-7.518 3.759 3.759 0 0 0 0 7.518zM490.991 172.77a3.759 3.759 0 1 0 0-7.518 3.759 3.759 0 0 0 0 7.518zM415.814 172.77a3.759 3.759 0 1 0 0-7.518 3.759 3.759 0 0 0 0 7.518zM378.225 285.536a3.759 3.759 0 1 0 0-7.518 3.759 3.759 0 0 0 0 7.518zM378.225 210.359a3.759 3.759 0 1 0 0-7.518 3.759 3.759 0 0 0 0 7.518zM490.991 323.124a3.758 3.758 0 1 0-3.759-3.758 3.758 3.758 0 0 0 3.759 3.758zM415.814 323.124a3.758 3.758 0 1 0-3.759-3.758 3.758 3.758 0 0 0 3.759 3.758zM303.048 135.181a3.758 3.758 0 1 0-3.759-3.758 3.758 3.758 0 0 0 3.759 3.758zM340.637 97.593a3.759 3.759 0 1 0 0-7.518 3.759 3.759 0 0 0 0 7.518zM265.459 97.593a3.759 3.759 0 1 0 0-7.518 3.759 3.759 0 0 0 0 7.518zM227.871 135.181a3.758 3.758 0 1 0-3.759-3.758 3.758 3.758 0 0 0 3.759 3.758zM303.048 285.536a3.759 3.759 0 1 0 0-7.518 3.759 3.759 0 0 0 0 7.518zM303.048 210.359a3.759 3.759 0 1 0 0-7.518 3.759 3.759 0 0 0 0 7.518zM340.637 247.947a3.759 3.759 0 1 0 0-7.518 3.759 3.759 0 0 0 0 7.518zM265.459 247.947a3.759 3.759 0 1 0 0-7.518 3.759 3.759 0 0 0 0 7.518zM340.637 172.77a3.759 3.759 0 1 0 0-7.518 3.759 3.759 0 0 0 0 7.518zM265.459 172.77a3.759 3.759 0 1 0 0-7.518 3.759 3.759 0 0 0 0 7.518zM227.871 285.536a3.759 3.759 0 1 0 0-7.518 3.759 3.759 0 0 0 0 7.518zM227.871 210.359a3.759 3.759 0 1 0 0-7.518 3.759 3.759 0 0 0 0 7.518zM340.637 323.124a3.758 3.758 0 1 0-3.759-3.758 3.758 3.758 0 0 0 3.759 3.758zM265.459 323.124a3.758 3.758 0 1 0 .002-7.516 3.758 3.758 0 0 0-.002 7.516zM152.694 135.181a3.758 3.758 0 1 0 0-7.518 3.758 3.758 0 0 0 0 7.518zM190.282 97.593a3.759 3.759 0 1 0 0-7.518 3.759 3.759 0 0 0 0 7.518zM115.105 97.593a3.759 3.759 0 1 0 0-7.518 3.759 3.759 0 0 0 0 7.518zM152.694 285.536a3.758 3.758 0 0 0 3.758-3.759 3.758 3.758 0 1 0-3.758 3.759zM152.694 210.359a3.758 3.758 0 0 0 3.758-3.759 3.758 3.758 0 1 0-3.758 3.759zM190.282 247.947a3.759 3.759 0 1 0 0-7.518 3.759 3.759 0 0 0 0 7.518zM115.105 247.947a3.759 3.759 0 1 0 0-7.518 3.759 3.759 0 0 0 0 7.518zM190.282 172.77a3.759 3.759 0 1 0 0-7.518 3.759 3.759 0 0 0 0 7.518zM115.105 172.77a3.759 3.759 0 1 0 0-7.518 3.759 3.759 0 0 0 0 7.518zM190.282 323.124a3.758 3.758 0 1 0-3.759-3.758 3.758 3.758 0 0 0 3.759 3.758zM115.105 323.124a3.758 3.758 0 1 0-3.759-3.758 3.758 3.758 0 0 0 3.759 3.758z"/>
    </g>
    <defs>
        <linearGradient id="a" x1="139.419" x2="1512.9" y1="230.335" y2="207.331" gradientUnits="userSpaceOnUse">
            <stop stop-color="#FF8D39"/>
            <stop offset="1" stop-color="#FB1F73"/>
        </linearGradient>
    </defs>
</svg>
