<svg xmlns="http://www.w3.org/2000/svg" width="88" height="80" fill="none" viewBox="0 0 88 80">
    <path fill="#7F91A5" d="M35.55 37.42c4.695.808 8.4 2.972 11.116 6.494 2.788 3.522 4.182 7.888 4.182 13.097 0 3.375-.624 6.457-1.871 9.245a19.86 19.86 0 0 1-5.393 7.154c-2.275 1.981-5.026 3.485-8.255 4.513-3.228 1.1-6.823 1.65-10.786 1.65-5.576 0-10.492-1.063-14.748-3.191-4.182-2.055-7.447-4.99-9.795-8.805l6.494-6.494c1.687 3.009 3.962 5.357 6.823 7.044 2.862 1.761 6.604 2.642 11.226 2.642 5.063 0 9.025-1.138 11.887-3.412 2.935-2.275 4.402-5.723 4.402-10.346 0-4.622-1.577-8.291-4.732-11.006-3.082-2.788-7.594-4.182-13.538-4.182h-2.861v-8.145h3.081c5.283 0 9.319-1.247 12.107-3.742 2.862-2.568 4.292-5.796 4.292-9.685 0-3.889-1.357-6.787-4.072-8.695-2.715-1.907-6.127-2.861-10.235-2.861-4.036 0-7.595.88-10.676 2.641-3.008 1.688-5.356 4.072-7.044 7.154L1.21 12.327c.954-1.835 2.238-3.486 3.852-4.953a26.478 26.478 0 0 1 5.723-3.962A32.16 32.16 0 0 1 17.83.88C20.398.293 23.076 0 25.864 0c3.449 0 6.604.477 9.465 1.43 2.935.955 5.43 2.275 7.484 3.963 2.128 1.688 3.742 3.742 4.843 6.163 1.174 2.422 1.761 5.1 1.761 8.035 0 2.2-.33 4.292-.99 6.273a16.327 16.327 0 0 1-2.752 5.393c-1.174 1.614-2.641 2.972-4.402 4.072-1.688 1.027-3.596 1.725-5.724 2.091z" opacity=".2"/>
    <path fill="#FBE3E3" d="M45.877 63.895l15.008 14.008 1.001-.5 7.504-7.005 9.505-7.504L84.9 54.89l2.501-6.003-.5-7.004-2.502-6.003-5.002-4.003-5.003-1.5-5.503 1-4.503 2.502-3.001 5.503-.5-1.501-2.502-4.002-4.002-2.502-4.503-1-5.503.5-3.502 2.501-3.501 5.003-2.502 6.504 1.501 7.003c.667.834 2.301 3.102 3.502 5.503 1.2 2.402 4.502 5.337 6.003 6.504z"/>
    <path fill="#F84F4F" stroke="#F84F4F" stroke-width=".1" d="M60.69 79.544l.033.03.034-.03 19.146-17.08c3.78-3.426 6.373-7.752 7.496-12.51.778-3.292.524-5.315.461-5.708-.79-8.7-6.952-15.023-14.671-15.023-5.113 0-9.797 2.737-12.452 7.127-2.63-4.446-7.123-7.128-12.155-7.128-7.719 0-13.88 6.322-14.67 15.023-.065.393-.318 2.417.46 5.71 1.122 4.756 3.715 9.083 7.495 12.508L60.69 79.544zm24.588-30.088c-1.02 4.324-3.384 8.265-6.832 11.388l-17.71 15.8L43.331 60.85c-3.454-3.13-5.818-7.07-6.84-11.394l-.048.011.049-.011c-.717-3.036-.445-4.78-.432-4.866l.016-.105v-.003c.674-7.586 5.937-13.08 12.506-13.08 4.848 0 9.118 2.978 11.146 7.778l.957 2.268.046.11.046-.11.957-2.268c1.995-4.725 6.491-7.777 11.456-7.777 6.567 0 11.831 5.494 12.519 13.178v.005c.012.077.29 1.822-.43 4.87z"/>
</svg>
