<svg xmlns="http://www.w3.org/2000/svg" width="88" height="70" fill="none" viewBox="0 0 88 70">
    <path fill="#7F91A5" d="M0 70c0-3.213.241-6.225.723-9.036a27.3 27.3 0 0 1 3.012-8.072c1.446-2.57 3.414-5.02 5.904-7.35 2.57-2.33 5.903-4.658 10-6.988 2.41-1.285 4.859-2.53 7.349-3.735 2.49-1.285 4.739-2.61 6.747-3.976 2.088-1.445 3.775-2.971 5.06-4.578 1.366-1.606 2.048-3.494 2.048-5.663 0-1.365-.32-2.73-.964-4.096-.642-1.365-1.566-2.57-2.77-3.614-1.205-1.045-2.732-1.888-4.579-2.53-1.767-.643-3.815-.964-6.145-.964-2.41 0-4.618.361-6.626 1.084-1.928.643-3.655 1.486-5.18 2.53-1.527.964-2.852 2.008-3.977 3.133-1.124 1.124-2.048 2.128-2.77 3.012L.963 11.446c.642-.723 1.727-1.687 3.253-2.892C5.743 7.27 7.67 5.984 10 4.7c2.33-1.285 5.02-2.37 8.072-3.253C21.125.482 24.538 0 28.313 0c3.695 0 7.028.522 10 1.566 2.972.964 5.462 2.33 7.47 4.097 2.088 1.767 3.695 3.855 4.82 6.265 1.124 2.33 1.686 4.819 1.686 7.47 0 3.132-.683 5.863-2.048 8.192a24.908 24.908 0 0 1-5.06 6.145 34.798 34.798 0 0 1-6.265 4.578 244.142 244.142 0 0 1-6.024 3.133 125.051 125.051 0 0 0-6.025 3.253 45.03 45.03 0 0 0-6.265 4.217 29.464 29.464 0 0 0-5.3 5.18c-1.447 1.928-2.37 4.017-2.772 6.266h41.085V70H0z" opacity=".2"/>
    <path fill="#FBE3E3" d="M43.624 52.43v15.562l20.08.502 11.044-.502v-5.02l.502-22.59 7.028 2.008 2.008-4.519 2.008-5.522-4.016-3.012-10.04-5.522-3.514-1.004-2.51 1.004-2.008 3.012-3.012 2.008h-4.016l-3.012-2.008-2.51-4.016h-3.012l-2.51 1.004-5.522 3.012-6.526 3.514-2.008 2.008 1.004 3.013 2.51 7.028h2.51l5.522-2.51v12.55z"/>
    <path fill="#F84F4F" d="M71.108 21.807h-5.96a5.969 5.969 0 0 1-5.963 5.962 5.967 5.967 0 0 1-5.96-5.962h-5.962l-16.691 9.538 4.77 13.115 7.152-2.385v27.422h33.383V42.075l7.153 2.385 4.768-13.115-16.69-9.538zM81.58 41.464l-4.951-1.65-3.139-1.047v28.345H44.878V38.767l-3.138 1.047-4.951 1.65-3.29-9.045 14.397-8.227h3.29a8.346 8.346 0 1 0 15.998 0h3.29l14.397 8.227-3.29 9.045z"/>
</svg>
