<svg xmlns="http://www.w3.org/2000/svg" width="71" height="69" fill="none" viewBox="0 0 71 69">
    <path fill="#7F91A5" d="M45.605 58.927v9.601H2.52v-9.601h17.042V12.12c-.72.96-1.84 2-3.36 3.12-1.52 1.04-3.24 2.041-5.16 3.001-1.84.88-3.761 1.64-5.761 2.28-2 .64-3.76.96-5.281.96v-10.08c1.76 0 3.72-.48 5.88-1.44 2.16-1.04 4.201-2.201 6.121-3.481 2-1.36 3.68-2.64 5.041-3.84 1.44-1.28 2.28-2.16 2.52-2.641h10.801v58.927h15.242z" opacity=".2"/>
    <path fill="#FBE3E3" d="M36.496 54.526v10.501l1 1.5 3 1 9.502.501.5-2-.5-2-2-2-.5-2.814v-2.687l3-3h2l4 .5 2.5 2.5v2.5l-1.5 3.5-2.5 3 1 2H67l2.5-2.5V35.526l-2-1.501H58.81l-2.813-.5-.5-1.5 1-2 2.5-3-.5-3.501-2-3-3.5-1-4.5 2-1.5 3.5 1 3.5 2.5 2v3.501H38.997l-2.001 1-.5 1.5V42.525l-.5 5-2 1-1-1-2.5-2v-.5H26.494l-1.5.5-1 .5-.5 1-1 1-.5 1.5v3.501l1 1.5 3 2h3.5l2.5-2 1.5-1.5h1.5l1.501 1.5z"/>
    <path fill="#F84F4F" d="M52.818 18.523c-3.81 0-6.819 3.009-6.819 6.818 0 2.515 1.453 4.511 3.41 5.7v1.688h-9.66c-2.49 0-4.546 2.056-4.546 4.546v9.66h-1.65c-1.188-1.965-3.215-3.41-5.736-3.41-3.76 0-6.65 3.105-6.819 6.766-.01.212 0 .506 0 .622 0 3.81 3.01 6.818 6.819 6.818 2.512 0 4.528-1.455 5.717-3.41h1.67l.035 9.661c.007 2.474 2.02 4.546 4.51 4.546h10.796a1.136 1.136 0 0 0 1.136-1.137v-3.409a1.137 1.137 0 0 0-.657-1.03c-1.653-.786-2.752-2.21-2.752-4.084 0-2.666 1.88-4.546 4.546-4.546h.568c2.577.105 4.545 1.998 4.545 4.546 0 1.873-1.099 3.297-2.752 4.084a1.136 1.136 0 0 0-.657 1.03v3.41a1.137 1.137 0 0 0 1.137 1.136h10.795c2.49 0 4.546-2.056 4.546-4.546V37.275c0-2.49-2.056-4.546-4.546-4.546h-9.659v-1.687c1.956-1.19 3.41-3.186 3.41-5.7 0-3.779-3.12-6.672-6.801-6.82H52.818zm0 2.273h.532c2.553.12 4.581 2.022 4.581 4.545 0 1.874-1.099 3.298-2.752 4.085a1.136 1.136 0 0 0-.657 1.03v3.41a1.137 1.137 0 0 0 1.137 1.136h10.795c1.222 0 2.273 1.051 2.273 2.273v26.707c0 1.221-1.051 2.273-2.273 2.273h-9.659v-1.687c1.956-1.19 3.41-3.185 3.41-5.7 0-3.771-3.072-6.694-6.784-6.819h-.603c-3.81 0-6.819 3.01-6.819 6.819 0 2.515 1.453 4.511 3.41 5.7v1.687h-9.66c-1.221 0-2.234-1.053-2.237-2.29l-.036-10.797a1.136 1.136 0 0 0-1.136-1.119h-3.41a1.137 1.137 0 0 0-1.03.64c-.785 1.652-2.21 2.77-4.083 2.77-2.665 0-4.546-1.881-4.546-4.547v-.532c.117-2.555 2.028-4.582 4.546-4.582 1.873 0 3.297 1.1 4.084 2.753a1.136 1.136 0 0 0 1.03.657h3.409a1.137 1.137 0 0 0 1.136-1.137V37.275c0-1.222 1.052-2.273 2.273-2.273h10.796a1.137 1.137 0 0 0 1.136-1.137v-3.41a1.137 1.137 0 0 0-.657-1.03c-1.653-.786-2.752-2.21-2.752-4.084 0-2.665 1.88-4.546 4.546-4.546z"/>
</svg>
