<svg xmlns="http://www.w3.org/2000/svg" width="108" height="114" fill="none" viewBox="0 0 108 114">
    <path fill="#fff" d="M28.016 63.802c5.06-6.291 15.455-2.994 21.162-11.69 5.71-8.685 1.178-21.904 9.445-21.163 8.26.736 13.086 20.242 4.107 29.332 12.35-.204 18.837 2.395 18.964 8.647.13 6.252-5.082 6.45-5.082 6.45 8.088 1.78 6.835 11.631-1.281 12.687 5.228 1.043 8.56 9.13-1.075 11.966 4.29 2.427 3.943 10.015-7.588 10.746-8.686.551-34.621 2.817-39.497-3.184-1.618-1.993-.621-35.764.845-43.79z"/>
    <path fill="#FF8D39" d="M47.321 112.573c-11.63 0-18.452-1.439-20.857-4.399-.916-1.128-1.233-7.936-.94-20.236.204-8.623.79-19.906 1.594-24.302a.919.919 0 0 1 .188-.411c2.486-3.091 6.168-4.046 9.73-4.97 4.157-1.079 8.456-2.194 11.38-6.648 2.316-3.523 2.87-7.895 3.36-11.752C52.416 34.787 53.023 30 57.98 30c.233 0 .476.011.723.033 3.393.303 6.486 3.419 8.275 8.336 2.22 6.104 2.326 14.934-2.24 20.985 11.893.116 17.741 3.245 17.87 9.555.078 3.782-1.614 5.63-3.215 6.532 2.356 1.312 3.714 3.556 3.6 6.187-.107 2.47-1.68 5.28-4.866 6.635 1.832 1.233 3.084 3.253 3.18 5.411.062 1.41-.363 4.682-5.173 6.671 1.283 1.355 1.844 3.23 1.425 5.067-.81 3.554-4.86 5.902-10.834 6.282-.636.04-1.364.09-2.171.145-4.299.292-10.797.734-17.234.734zm-19.42-5.535c1.405 1.693 5.92 3.698 19.42 3.698 6.375 0 12.836-.439 17.111-.73.81-.055 1.54-.105 2.18-.146 5.12-.325 8.547-2.141 9.166-4.858.37-1.62-.422-3.296-1.97-4.171A.92.92 0 0 1 74 99.149c3.589-1.056 5.586-3.022 5.48-5.393-.098-2.222-1.999-4.326-4.326-4.79a.918.918 0 0 1 .06-1.813c3.945-.513 5.851-3.266 5.952-5.605.088-2.025-1.114-4.474-4.749-5.274a.918.918 0 0 1 .162-1.815c.436-.022 4.308-.36 4.201-5.513-.068-3.33-1.877-7.758-16.736-7.758-.426 0-.86.003-1.3.01h-.015a.914.914 0 0 1-.84-.558.922.922 0 0 1 .191-1.007C67.447 54.201 67.49 45.13 65.26 39c-1.539-4.23-4.05-6.898-6.719-7.136a6.353 6.353 0 0 0-.56-.026c-3.198 0-3.705 2.829-4.393 8.25-.514 4.056-1.097 8.652-3.647 12.532-3.31 5.044-8.166 6.304-12.45 7.415-3.345.868-6.509 1.688-8.617 4.168-1.52 8.811-2.247 40.35-.973 42.836z"/>
    <path fill="#FF8D39" d="M54.464 60.616c-2.059 1.666 11.66-.315 17.02.138l.03.005c-2.486-.379-5.415-.534-8.784-.479 8.98-9.089 4.153-28.596-4.107-29.332-.835-.074-1.534 0-2.131.19 7.193 3.093 8.29 24.442-2.028 29.478zM76.613 75.377s5.21-.197 5.082-6.45c-.09-4.414-3.356-7.005-9.614-8.076 4.911 1.104 6.61 10.334-1.48 13.37 4.754.403 7.954 9.9-1.372 11.022 5.211 1.378 6.583 9.277-2.012 10.655 4.023.735 4.389 6.98-1.463 8.214-5.85 1.234-31.085.787-38.038-1.285l-1.041 2.561c.126 1.173.29 1.95.496 2.205 4.877 6.001 28.16 4.011 39.406 3.092 11.516-.94 11.97-8.227 7.68-10.654 9.635-2.836 6.302-10.923 1.074-11.966 8.117-1.056 9.37-10.907 1.282-12.688z" opacity=".2"/>
    <path fill="#FFC59A" d="M28.39 107.96c1.197 6.905-18.098 5.997-23.392 2.154-5.293-3.845-4.203-33.892-3.443-44.506.565-7.9 26.889-8.287 26.462-1.806-.71 10.775-1.79 31.64.374 44.158z"/>
    <path fill="#FF8D39" d="M18.18 114c-5.53 0-11.17-1.292-13.718-3.142-.943-.684-3.812-2.769-4.37-20.43-.278-8.812.123-18.913.55-24.885.354-4.933 8.554-7.18 16.023-7.18 5.345 0 9.573 1.113 11.31 2.977.684.734 1.014 1.607.954 2.523-1.325 20.1-1.203 34.883.362 43.94.21 1.213-.085 2.339-.854 3.257-2.141 2.558-7.346 2.94-10.258 2.94zm-1.515-53.8c-6.787 0-13.954 2.047-14.199 5.474-1.091 15.24-1.224 40.58 3.067 43.695 2.229 1.619 7.548 2.794 12.646 2.794 4.349 0 7.66-.855 8.859-2.285.427-.512.57-1.07.451-1.76-1.59-9.202-1.72-24.132-.385-44.376.027-.414-.12-.778-.464-1.147-1.356-1.455-5.271-2.395-9.976-2.395z"/>
    <path fill="#fff" d="M5.328 65.66a.92.92 0 0 1-.536-1.663c1.796-1.303 5.857-2.695 11.872-2.695.505 0 .914.41.914.918s-.409.919-.914.919c-5.585 0-9.31 1.264-10.801 2.347a.905.905 0 0 1-.535.174zM3.848 76.155h-.025a.916.916 0 0 1-.89-.944c.05-1.84.119-3.705.204-5.54a.916.916 0 0 1 .956-.875.917.917 0 0 1 .87.96 289.356 289.356 0 0 0-.201 5.505.916.916 0 0 1-.914.894zM3.85 82.945h-.01a.917.917 0 0 1-.905-.926 260.2 260.2 0 0 1 .04-2.857c.01-.508.437-.92.933-.9.505.01.906.43.896.936-.019.938-.032 1.885-.04 2.838a.916.916 0 0 1-.915.91z"/>
    <path fill="#EE6501" d="M28.39 107.96a67.407 67.407 0 0 1-.567-4.113c-.131-.378-.266-.76-.408-1.153-1.579 1.411-4.834 2.327-8.505 2.759a5.293 5.293 0 0 0 1.72-3.679c.135-2.921-2.115-5.402-5.028-5.539-2.913-.134-5.383 2.133-5.517 5.056a5.297 5.297 0 0 0 2.03 4.417c-4.381-.176-8.296-1.019-9.69-2.524l-.297-.104c.63 3.498 1.552 6.077 2.869 7.034 5.294 3.843 24.589 4.751 23.393-2.154z" opacity=".2"/>
    <path fill="#FF8D39" d="M19.412 98.59c-.132 2.922-2.6 5.19-5.515 5.053-2.913-.135-5.162-2.612-5.03-5.536.133-2.923 2.603-5.19 5.517-5.056 2.912.137 5.163 2.618 5.028 5.539z"/>
    <path fill="#fff" d="M19.412 98.59c-.132 2.922-2.6 5.19-5.515 5.053-2.913-.135-5.162-2.612-5.03-5.536.133-2.923 2.603-5.19 5.517-5.056 2.912.137 5.163 2.618 5.028 5.539z"/>
    <path fill="#FF8D39" d="M14.148 104.567a5.75 5.75 0 0 1-.293-.007c-3.409-.158-6.056-3.072-5.901-6.495.156-3.425 3.027-6.101 6.472-5.931 3.411.16 6.057 3.075 5.9 6.498-.15 3.328-2.864 5.935-6.178 5.935zm-.01-10.603A4.366 4.366 0 0 0 9.78 98.15c-.109 2.411 1.757 4.464 4.16 4.576 2.44.114 4.45-1.763 4.559-4.177.111-2.413-1.754-4.467-4.158-4.58a4.153 4.153 0 0 0-.202-.005z"/>
    <path fill="#fff" d="M46.252 5.474c-2.436.764-3.05 1.383-3.81 3.836-.758-2.453-1.373-3.072-3.808-3.836 2.435-.763 3.05-1.383 3.809-3.835.758 2.452 1.373 3.072 3.809 3.835z"/>
    <path fill="#F84F4F" d="M42.443 9.948a.634.634 0 0 1-.605-.448c-.7-2.264-1.144-2.711-3.393-3.417A.638.638 0 0 1 38 5.474c0-.28.18-.526.445-.61 2.249-.704 2.693-1.151 3.393-3.415A.634.634 0 0 1 42.443 1c.277 0 .523.182.605.449.7 2.264 1.144 2.71 3.393 3.416a.638.638 0 0 1 0 1.218c-2.249.706-2.693 1.153-3.393 3.417a.635.635 0 0 1-.605.448zM40.41 5.474c.968.479 1.557 1.072 2.032 2.046.475-.974 1.064-1.567 2.032-2.046-.968-.478-1.557-1.071-2.032-2.046-.475.975-1.064 1.568-2.032 2.046z"/>
    <path fill="#FF8D39" d="M79.556 15.217c-.497 0-.935-.325-1.082-.802-1.172-3.79-1.915-4.537-5.678-5.717A1.14 1.14 0 0 1 72 7.608c0-.5.323-.94.796-1.089 3.764-1.18 4.507-1.927 5.678-5.717A1.133 1.133 0 0 1 79.556 0c.496 0 .934.325 1.081.802 1.172 3.79 1.915 4.538 5.678 5.717.474.149.797.59.797 1.09 0 .499-.323.94-.796 1.089-3.764 1.18-4.507 1.928-5.679 5.717a1.134 1.134 0 0 1-1.081.802zm-3.28-7.608c1.539.783 2.502 1.753 3.28 3.302.777-1.55 1.74-2.52 3.279-3.302-1.539-.783-2.502-1.754-3.28-3.303-.777 1.55-1.74 2.52-3.28 3.303z"/>
    <path fill="#F84F4F" d="M102.691 40.448a.61.61 0 0 1-.581-.43c-.752-2.432-1.268-2.951-3.683-3.709a.613.613 0 0 1 0-1.17c2.415-.757 2.931-1.277 3.683-3.708a.608.608 0 0 1 1.162 0c.752 2.43 1.269 2.95 3.683 3.708a.613.613 0 0 1 0 1.17c-2.414.758-2.931 1.277-3.682 3.709a.611.611 0 0 1-.582.43zm-2.332-4.724c1.15.535 1.801 1.19 2.332 2.349.531-1.158 1.183-1.814 2.333-2.349-1.15-.535-1.802-1.19-2.333-2.349-.531 1.158-1.182 1.814-2.332 2.349z"/>
    <path fill="#FF8D39" d="M13.309 30.748c-.529 0-.997-.346-1.154-.855-1.491-4.824-2.516-5.855-7.307-7.358A1.216 1.216 0 0 1 4 21.374c0-.532.344-1.003.849-1.162 4.79-1.502 5.815-2.533 7.306-7.357A1.208 1.208 0 0 1 13.31 12c.529 0 .996.346 1.153.854 1.492 4.825 2.516 5.856 7.307 7.358.505.159.849.63.849 1.162 0 .533-.345 1.003-.849 1.161-4.79 1.503-5.815 2.534-7.307 7.358a1.21 1.21 0 0 1-1.153.855zM8.68 21.374c2.282 1.061 3.574 2.363 4.629 4.66 1.054-2.297 2.346-3.599 4.628-4.66-2.282-1.062-3.574-2.363-4.629-4.66-1.054 2.297-2.346 3.598-4.628 4.66z"/>
</svg>
