<svg xmlns="http://www.w3.org/2000/svg" width="120" height="276" fill="none" viewBox="0 0 120 276">
    <path fill="#B1BBC8" d="M57.075 156.066c-1.284-.897-2.303-2.084-3.532-2.933-3.06-2.116-7-3.227-10.727-3.805-3.35-.521-6.52-.473-8.74-.61-1.704-.106-1.563-.046-1.728 1.118-.19 1.341-.37 2.657-.489 3.942-.735 7.943-1.47 15.97-.587 23.935 1.78 16.056.678 21.596-.654 28.299-2.403 12.084-2.515 20.423-1.065 32.602.787 6.609 1.542 12.948.444 19.748-.871 5.395-5.097 9.147-9.102 12.125-3.141 2.271 3.14 2.17 4.603 2.407 1.877.304 3.422.554 5.173-.865 1.194-.967 2.469-1.127 3.662-1.277 1.224-.153 2.292-.287 2.129-2.915-.32-5.136.007-10.195.634-15.29.42-10.038 4.347-18.915 5.305-28.923.32-3.339.252-6.169.064-9.5-.085-1.5-.083-.746-.96-1.741a1.477 1.477 0 0 1-.298-1.395c.55-1.822 1.33-3.613 2.055-5.086 1.057-2.147 2.178-3.816 3.056-6.08 1.616-4.163 1.742-8.388 2.497-12.729 1.05-6.034.566-10.974 2.442-17.516.306-1.069 1.842-.577 1.536.493a45.568 45.568 0 0 0-1.108 4.86c-.72 4.175-.592 3.518.677.122.295-.789.596-1.58.898-2.374 1.725-4.544 3.496-9.205 4.518-14.296.384-1.914.64-1.379-.703-2.316zm52.58-14.77a20.99 20.99 0 0 0-1.333 4.4c-.628 3.211 1.436 1.159 2.027-.098 1.76-4.334 3.561-3.659 4.007.102a25.92 25.92 0 0 1 .192 4.206c-.088 2.684-.498 5.417-.866 8.071-.605 4.362 2.032 4.488 2.634 1.355.796-4.147 1.091-8.923.963-13.684-.238-8.798-2.256-16.002-3.821-24.472-1.051-5.682-1.926-10.417-4.778-18.249-1.25-2.697-2.536-5.42-4.082-7.943-1.734-2.827-1.95-5.371-2.188-8.178-.341-4.018-1.265-7.916-3.19-11.426-.841-1.536-.285-.864-1.367-1.22-.561-.186-.96-.75-.938-1.403.074-2.046-.513-4.881-1.033-7.033-.515-2.136-1.195-4.22-2.164-6.037-2.692-5.047-8.262-6.496-12.9-8.83-4.884-2.46-11.285-4.179-12.728-10.374-.655-2.812-.594-6.058-.288-8.228.407-2.88.822-3.023 1.95-3.415 1.547-.536 1.715-2.815 2.008-4.26v-.006c.234-1.148.032-1.436-.165-1.718-.517-.738-1.024-1.463-.694-3.427 1.184-8.689-2.943-16.586-11.688-16.586-8.745 0-12.871 7.897-11.689 16.587.142.836.13 1.448.03 1.932-.353 1.723-1.314 1.116-.823 3.541.322 1.59.626 3.096 1.3 3.605 1.396 1.085 1.852.515 2.563 3.543a7.414 7.414 0 0 0 2.488 4.064c1.343 1.121 3.048 1.746 4.792 1.682 1.76-.058 1.844 2.774.084 2.832-2.205.082-4.355-.636-6.108-1.945-1.142-.853-.902-1.256-1.1.34-.102.816-.26 1.645-.497 2.443-1.688 5.694-13.656 10.989-18.564 12.957l.001.001c-5.033 2.14-6.913 7.816-7.968 13.008-.36 1.78-.742 3.473-.674 5.324.02.637-.36 1.192-.9 1.39-.89.324-.615-.074-1.214 1.11-.542 1.072-.946 2.007-1.538 4.283l-.029.113-.007.02c-1.785 4.956-.759 10.067-3.974 15.311-1.547 2.523-2.833 5.246-4.083 7.943-3.573 9.814-4.56 18.603-6.877 28.53-.982 4.207-1.586 9.186-1.721 14.191-.128 4.761.166 9.537.963 13.684.601 3.133 3.238 3.007 2.633-1.355-.38-2.743-.663-4.862-.797-6.771-.136-1.942-.114-3.642.123-5.506.503-3.951 3.185-3.414 4.476.154l-.002.001c1.083 2.676 2.009 1.836 1.574-.463-.198-1.047-.62-2.401-1.347-4.096-.545-1.27-1.258-3.165-1.547-4.489-.21-.97-.57-3.05.264-3.782.726-.637.584.192 1.027-1.082.713-2.051 1.347-3.402 2.304-5.5 1.582-3.468 3.434-6.853 5.157-10.229 2.091-4.097 4.08-8.23 5.18-11.905.377-1.497.39-3.13-.097-4.601-.314-.956.392-1.93 1.328-1.883.891.046.506.67 1.052-.642.35-.843.72-1.688 1.09-2.537a141.82 141.82 0 0 0 1.911-4.582c1.31-3.308 2.628-6.621 3.42-10.122.593-2.624.796-4.796.764-6.478-.034-1.863 2.64-1.918 2.675-.055.036 1.891-.187 4.307-.838 7.188-.11.487-.232.987-.366 1.499-.758 2.88-.68 1.657.289 4.48A57.975 57.975 0 0 1 36.4 96.73c.527 3.613.75 7.679.227 11.703v.011c-.496 3.643-.24 5.772.095 8.55.12.988.248 2.053.356 3.261.2 2.22-.644 1.899 1.537 2.528 12.277 3.538 30.706 3.073 42.936-.613 1.73-.521 1.195-.173 1.352-1.915.109-1.208.237-2.273.356-3.261.335-2.778.591-4.907.096-8.55v-.011c-.529-4.066-.288-8.175.263-11.81a53.28 53.28 0 0 1 2.338-9.395c1.18-3.365 1.205-1.86.303-5.366-.698-2.713-1.197-5.638-1.143-8.452.034-1.863 2.709-1.808 2.674.055-.031 1.682.172 3.854.765 6.478.21.93.47 1.919.788 2.964 1.137 3.74 3.018 8.225 4.553 11.74.258.59.515 1.178.765 1.764 1.182 2.771.455.955 1.914 1.493.698.258 1.067 1.066.824 1.805a7.654 7.654 0 0 0-.373 2.324c-.02 1.97.705 3.818 1.414 5.6 2.244 5.639 5.327 10.882 7.983 16.305.659 1.347 2.316 5.133 2.403 5.34.378.901.723 1.725 1.017 2.508.574 1.53.358.522 1.149 1.276.248.236.414.57.44.95.105 1.434-.35 3.233-.86 4.802-.274.841-.57 1.674-.918 2.483zm-97.324-7.565c-.613 2.031-.654 3.845.442 6.399 1.74 4.057 1.957 6.827 1.465 8.361-.476 1.482-1.726 2.342-3.191 1.888-.585-.181-1.206-.579-1.74-1.222-1.197-1.439-1.253-1.861-1.2.299.012.501.034 1.014.072 1.55.126 1.797.403 3.869.777 6.56 1.137 8.201-6.65 8.897-7.91 2.333-.84-4.365-1.15-9.364-1.016-14.329.14-5.215.77-10.403 1.794-14.79 2.357-10.101 3.348-18.903 6.998-28.918l.016-.043.031-.068c1.308-2.825 2.652-5.669 4.272-8.31 2.774-4.525 2.031-10.084 3.705-14.76.785-2.987 1.52-4.398 2.211-5.728 1.087-2.088 1.62-4.076 2.102-6.385 1.276-6.112 3.646-12.272 9.534-14.775l.032-.011c4.327-1.72 16.027-6.739 17.158-11.891.524-2.384.371-5.208.086-7.225-.17-.478-.093-1-1.49-1.847-1.527-1.155-1.937-3.184-2.37-5.327-.355-1.752-.503-2.79.572-4.324.167-.24.33-.474.2-1.25l-.005-.044C43.431 9.392 48.807 0 59.213 0 69.619 0 74.995 9.392 73.55 19.874l-.005.044c-.13.776.033 1.01.2 1.25.558.796 1.126 1.608.638 4.005h-.001c-.4 1.977-.774 4.39-2.434 5.646-1.63.676-1.359.833-1.492 1.847-.268 1.902-.326 4.727.235 7.14 1.124 4.826 7.183 6.426 11.27 8.484 5.414 2.726 10.927 4.086 14.086 10.008 1.454 2.728 2.311 5.875 2.916 8.956.632 3.216 1.416 4.62 2.261 6.132 2.359 4.224 3.435 8.275 3.851 13.175.206 2.433.393 4.638 1.768 6.88 1.619 2.641 2.963 5.485 4.271 8.31l.032.068.015.043c2.962 8.127 3.856 12.963 4.93 18.77 1.598 8.648 3.62 15.941 3.863 24.938.133 4.965-.177 9.964-1.016 14.329-1.26 6.564-9.047 5.868-7.91-2.333.359-2.592.725-5.155.84-7.774.18-4.086.056-2.026-1.232-.575a4.125 4.125 0 0 1-1.699 1.162c-1.465.454-2.716-.406-3.191-1.888-1.111-3.462 1.365-7.061 2.078-10.337.602-2.762-.182-4.707-1.441-7.733-.387-.923-1.581-3.634-2.384-5.275-2.703-5.524-5.831-10.843-8.096-16.599-.72-1.829-1.307-3.611-1.69-5.308-.521-2.303-1.628-4.837-2.75-7.404-.746-1.71-1.43-3.407-2.113-5.116-1.169-2.927-.918-3.21-1.793.098a59.62 59.62 0 0 0-1.294 6.249c-.515 3.395-.742 7.219-.255 10.978h.002c.544 3.997.266 6.299-.096 9.304-.114.948-.237 1.97-.345 3.172-.174 1.927.592 3.164 1.017 4.925.374 1.548.457 2.72.55 4.036.299 4.259 1.098 8.453 1.879 12.637.444 2.379.885 4.745 1.24 7.092.796 5.28 1.224 11.087 1.445 16.411.17 4.129.134 8.283-.324 12.414-1.731 15.614-.67 20.947.612 27.399 2.466 12.399 2.585 21.037 1.096 33.536-.76 6.383-1.489 12.506-.454 18.915.357 2.208 1.474 4.113 2.904 5.77 1.496 1.732 3.364 3.223 5.096 4.511 1.314.977 2.013 1.953 2.271 2.863.789 3.07-1.688 4.621-4.93 4.307-.834.045-2.316.244-3.087.368-2.49.403-4.538.734-7.197-1.42-.608-.492-1.508-.605-2.351-.71-2.574-.323-4.82-.605-4.489-5.915.157-2.515.156-4.96.04-7.397-.274-5.721-1.162-14.083-2.554-19.379-2.027-7.712-3.01-12.746-3.415-16.981-.409-4.267-.232-7.657.058-12.101-.039-4.631-2.293-7.052-3.786-10.901-1.297-3.342-1.662-6.148-2.068-9.264a92.941 92.941 0 0 0-.587-4.032c-.82-4.715-2.536-9.235-4.298-13.876-1.253-3.299-2.529-6.658-3.546-10.227-.907-3.182-.492-3.196-1.398-.01-1.017 3.58-2.294 6.941-3.547 10.242-1.763 4.639-3.478 9.157-4.298 13.871-.801 4.607-.92 8.828-2.654 13.296-.817 2.104-1.91 3.816-2.758 5.844-.592 1.416-1.011 2.968-1.029 5.057.29 4.444.467 7.834.059 12.101-.954 9.959-4.899 18.957-5.297 28.821l-.003.064-.008.063c-.61 4.937-.932 9.831-.622 14.809.331 5.31-1.915 5.592-4.488 5.915-.843.105-1.744.218-2.351.71-2.66 2.154-4.708 1.823-7.198 1.42-2.47-.399-9.208-.464-8.017-4.675.258-.91.958-1.886 2.271-2.863 3.342-2.485 7.043-5.278 8-10.281 1.035-6.409.306-12.532-.454-18.915-1.488-12.499-1.37-21.137 1.096-33.536 1.283-6.452 2.344-11.785.613-27.399-.905-8.165-.167-16.381.587-24.524.347-3.747 1.057-7.553 1.774-11.393.686-3.677 1.378-7.385 1.743-10.955.286-2.807.304-4.771 1.214-7.482.328-.976.61-1.816.489-3.161a100.728 100.728 0 0 0-.346-3.172c-.362-3.005-.64-5.307-.095-9.304h.001c.48-3.7.267-7.49-.227-10.882a58.708 58.708 0 0 0-1.261-6.238c-.921-3.556-.671-3.15-1.93.018a157.23 157.23 0 0 1-2.037 4.892c-1.121 2.568-2.228 5.102-2.749 7.405-1.112 4.917-3.53 9.766-5.856 14.295-1.695 3.299-3.462 6.642-5.048 10.046-.968 2.075-1.846 3.866-2.536 6.151zm59.095 54.837a.9.9 0 0 1 .004.152c.13.882.24 1.721.346 2.538.381 2.926.724 5.561 1.89 8.564.845 2.179 2.032 4.003 3.052 6.074.727 1.476 1.507 3.264 2.054 5.074a1.474 1.474 0 0 1-.351 1.459c-.89.899-.777-.512-.912 1.812-.184 3.168-.24 6.084.073 9.383.39 4.068 1.348 8.957 3.332 16.504 1.652 6.288 2.336 13.488 2.648 20.001a69.668 69.668 0 0 1-.04 7.708c-.164 2.628.904 2.762 2.128 2.915 1.194.15 2.468.31 3.663 1.277 1.75 1.419 3.295 1.169 5.173.865 1.569-.254 2.264-.359 3.691-.236 1.935.166 2.983-.63.911-2.171-1.84-1.368-3.842-2.971-5.526-4.922-1.75-2.026-3.122-4.394-3.575-7.203-1.099-6.8-.344-13.139.443-19.748 1.45-12.179 1.339-20.518-1.064-32.602-1.333-6.703-2.435-12.243-.655-28.299.442-3.989.478-7.993.314-11.97-.209-5.041-.571-10.985-1.4-15.973-.19-1.139.075-1.052-1.579-1.052-6.332.002-14.243.761-19.532 4.415-1.295.895-2.267 2.172-3.605 3.05-1.334.875-1.104.179-.7 2.195 1.023 5.104 2.791 9.758 4.514 14.295.268.707.536 1.411.8 2.114 1.589 4.238 1.824 5.235.866-.14a46.317 46.317 0 0 0-1.058-4.577c-.307-1.07 1.23-1.562 1.535-.493 1.441 5.025 1.758 9.215 2.094 13.654.13 1.727.264 3.493.466 5.337zm11.03 31.358c-.33-1.061 1.193-1.594 1.524-.534 1.202 3.818 1.096 9.71.056 13.561-.29 1.078-1.838.611-1.548-.467.954-3.533 1.072-9.056-.031-12.56zm-46.284-.534c.331-1.06 1.854-.527 1.523.534-1.103 3.504-.985 9.027-.03 12.56.29 1.078-1.26 1.545-1.549.467-1.04-3.851-1.147-9.743.056-13.561zm49.495-10.777c.364-1.052 1.875-.466 1.51.586l-.003.01c-.765 2.191-3.516 2.807-5.419 2.073l-.016-.006c-.993-.381-.446-1.981.548-1.6l.016.007c1.046.403 2.922.198 3.36-1.061l.004-.009zm-47.829 2.706c-1.89.59-4.485.064-5.283-2.009-.455-1.18 1.037-1.709 1.426-.805.565 1.315 2.052 1.656 3.316 1.212 1.21-.427 1.485 1.307.541 1.602zm35.524-110.282c.204-.94 1.67-.78 1.584.199-.256 2.918-5.79 4.241-7.87 3.793-1.034-.223-.713-1.889.321-1.666 1.438.31 5.582-.559 5.965-2.326zm1.58-7.933c-.266 2.78-5.736 4.156-7.866 3.697-1.034-.224-.713-1.89.321-1.666 1.243.267 5.568-.663 5.93-2.12.368-1.479 1.697-.799 1.614.089zm-29.015 8.228c-.1-1.076 1.391-1.268 1.584-.273.324 1.685 4.605 2.596 5.96 2.304 1.035-.223 1.356 1.443.32 1.666-2.129.459-7.598-.917-7.864-3.697zm13.715-10.201c0-1.118 1.605-1.118 1.605 0l.015 15.828c0 1.118-1.605 1.118-1.605 0l-.015-15.828zm-13.715 1.973c-.097-1.043 1.347-1.297 1.58-.286.401 1.75 4.515 2.629 5.964 2.317 1.035-.224 1.356 1.442.32 1.666-2.157.465-7.6-.932-7.864-3.697zm14.557 20.227c.738 0 1.336.431 1.336.963s-.598.963-1.336.963c-.738 0-1.336-.431-1.336-.963s.598-.963 1.336-.963zm7.777-65.256c.682-.854 1.91.246 1.227 1.1-1.74 2.18-6.166 2.39-6.411 4.147-.153 1.109-1.745.862-1.592-.246.482-3.456 4.966-2.733 6.776-5.001zm-17.998 1.1c-.682-.854.546-1.954 1.228-1.1 1.81 2.268 6.294 1.545 6.776 5 .153 1.11-1.44 1.356-1.592.247-.245-1.756-4.671-1.967-6.412-4.148zM57.71 154.53c1.9 1.38 2.597 1.416 4.502.096 1.777-1.231 3.004-2.761 3.63-4.944.487-1.703.534-3.368.448-4.313-.1-1.114 1.5-1.274 1.598-.16.087.944.06 2.504-.309 4.168-.356 1.61-.792 1.511.84.742 5.274-2.486 11.714-3.093 17.5-3.1 1.476-.002 1.226-.004 1.073-1.045-.163-1.104-.404-2.204-.61-3.312-.803-4.298-1.615-8.605-1.922-12.981-.082-1.17-.155-2.212-.475-3.537-.11-.454-.252-.894-.397-1.332-.554-1.671-.17-1.428-1.793-.946-12.51 3.717-31.216 4.167-43.747.512-1.68-.49-1.406-.635-1.917 1.332-.506 1.95-.535 3.598-.755 5.753-.381 3.737-1.08 7.484-1.774 11.199-.178.954-.334 1.912-.527 2.854-.254 1.233-.25 1.5 1.144 1.502 2.278.005 5.47.102 8.83.624 2.906.451 5.947 1.219 8.668 2.514 1.55.737 1.134.815.787-.719-.38-1.686-.41-3.272-.322-4.228.1-1.114 1.698-.954 1.599.16-.112 1.228.014 2.644.357 3.97.611 2.367 1.66 3.802 3.572 5.191zm19.207-78.174c.573 0 1.038.492 1.038 1.098 0 .607-.465 1.099-1.038 1.099s-1.037-.492-1.037-1.099c0-.606.464-1.098 1.037-1.098zm-33.069 0c.574 0 1.038.492 1.038 1.098 0 .607-.465 1.099-1.038 1.099-.572 0-1.037-.492-1.037-1.099 0-.606.465-1.098 1.038-1.098zM59.187 65.19c0-1.122 1.611-1.122 1.611 0v8.787c0 1.122-1.61 1.122-1.61 0v-8.787zm22.73 11.888c.41-1.03 1.888-.37 1.478.66-3.025 7.596-15.919 6.206-20.7 1.754-.793-.74.27-2.02 1.065-1.28 3.947 3.677 15.604 5.273 18.156-1.134zm-45.323.67c-.422-1.026 1.05-1.706 1.473-.68 2.667 6.447 14.803 4.83 18.924 1.135.806-.723 1.845.577 1.039 1.3-4.947 4.435-18.28 5.871-21.436-1.755z"/>
    <path stroke="#818891" stroke-width="3" d="M44.375 157.527L34.651 52.509H85.37l-9.724 105.018h-31.27z"/>
</svg>
