<svg xmlns="http://www.w3.org/2000/svg" width="68" height="144" fill="none" viewBox="0 0 68 144">
    <path fill="#B1BBC8" d="M32.347 81.005c-.728-.465-1.305-1.082-2.002-1.523-1.735-1.098-3.967-1.674-6.08-1.975-1.898-.27-3.694-.245-4.952-.316-.966-.055-.886-.024-.98.58-.107.696-.21 1.38-.277 2.046-.416 4.123-.833 8.29-.332 12.424 1.008 8.333.384 11.209-.372 14.688-1.361 6.272-1.425 10.6-.603 16.922.446 3.43.874 6.721.252 10.25-.494 2.8-2.89 4.747-5.159 6.293-1.78 1.179 1.78 1.127 2.609 1.25 1.064.157 1.94.287 2.932-.449.677-.502 1.399-.585 2.075-.663.694-.08 1.3-.149 1.206-1.513-.181-2.666.005-5.292.36-7.936.238-5.21 2.463-9.818 3.007-15.012.18-1.734.142-3.203.036-4.932-.048-.778-.047-.387-.544-.903a.719.719 0 0 1-.17-.724c.312-.946.754-1.875 1.165-2.64.6-1.115 1.235-1.981 1.732-3.156.916-2.161.988-4.354 1.416-6.607.594-3.132.32-5.696 1.384-9.091.173-.555 1.044-.3.87.255a21.97 21.97 0 0 0-.628 2.523c-.407 2.167-.335 1.826.384.063.167-.41.338-.82.509-1.232.978-2.358 1.98-4.778 2.56-7.42.218-.993.363-.716-.398-1.202zm29.8-7.666c-.445.949-.637 1.728-.756 2.283-.356 1.667.814.602 1.149-.05.997-2.25 2.018-1.9 2.27.053.105.746.136 1.441.11 2.182-.05 1.394-.283 2.812-.491 4.19-.343 2.264 1.151 2.33 1.492.703.452-2.153.619-4.632.546-7.103-.135-4.566-1.278-8.305-2.166-12.702-.595-2.949-1.091-5.406-2.707-9.472-.709-1.4-1.437-2.813-2.314-4.122-.982-1.468-1.105-2.788-1.24-4.245-.193-2.085-.717-4.109-1.807-5.93-.477-.798-.162-.449-.775-.634a.738.738 0 0 1-.532-.728c.042-1.062-.29-2.534-.585-3.65-.293-1.11-.678-2.191-1.227-3.134-1.525-2.62-4.682-3.372-7.31-4.584-2.769-1.276-6.397-2.168-7.215-5.384-.37-1.46-.336-3.144-.162-4.27.23-1.495.465-1.57 1.105-1.773.876-.278.972-1.46 1.138-2.211v-.003c.132-.596.018-.745-.094-.892-.293-.383-.58-.76-.393-1.778.67-4.51-1.668-8.61-6.624-8.61-4.956 0-7.295 4.1-6.625 8.61.08.434.074.752.017 1.003-.2.894-.745.579-.466 1.838.182.825.355 1.607.736 1.871.791.563 1.05.267 1.453 1.839.212.86.727 1.587 1.41 2.11a4.264 4.264 0 0 0 2.716.872c.997-.03 1.045 1.44.048 1.47a5.812 5.812 0 0 1-3.462-1.01c-.648-.442-.512-.651-.624.177a7.326 7.326 0 0 1-.281 1.268c-.957 2.955-7.74 5.704-10.521 6.725v.001c-2.852 1.11-3.918 4.057-4.515 6.752-.205.923-.42 1.802-.383 2.763a.737.737 0 0 1-.51.721c-.504.169-.348-.038-.688.576-.307.557-.536 1.042-.871 2.223l-.017.06-.004.01c-1.011 2.572-.43 5.225-2.252 7.947-.877 1.31-1.606 2.722-2.314 4.122-2.025 5.095-2.585 9.656-3.898 14.809-.556 2.184-.898 4.767-.975 7.365-.073 2.472.094 4.95.546 7.103.34 1.626 1.835 1.56 1.492-.703-.215-1.424-.376-2.524-.452-3.515a12.84 12.84 0 0 1 .07-2.857c.285-2.051 1.805-1.773 2.537.08h-.002c.614 1.389 1.14.953.893-.24-.112-.544-.352-1.247-.763-2.126-.31-.66-.714-1.643-.877-2.33-.12-.504-.324-1.584.15-1.964.41-.33.33.1.581-.561.404-1.064.764-1.766 1.306-2.855.897-1.8 1.946-3.557 2.923-5.309 1.185-2.127 2.312-4.272 2.936-6.18.213-.776.221-1.624-.055-2.387-.179-.496.221-1.002.752-.977.505.023.287.347.596-.334.199-.437.408-.876.618-1.317.378-.79.736-1.575 1.083-2.378.743-1.717 1.49-3.437 1.938-5.254.336-1.362.452-2.49.433-3.362-.019-.967 1.497-.996 1.517-.029.02.982-.106 2.236-.475 3.731a21.5 21.5 0 0 1-.208.778c-.43 1.495-.386.86.164 2.326a28.019 28.019 0 0 1 1.395 5.27c.298 1.875.424 3.985.128 6.074v.006c-.281 1.89-.136 2.995.054 4.437.067.513.14 1.066.202 1.693.113 1.152-.366.986.87 1.312 6.958 1.836 17.403 1.595 24.334-.318.98-.27.678-.09.767-.994.061-.627.134-1.18.201-1.693.19-1.442.335-2.546.054-4.437v-.006c-.3-2.11-.163-4.243.15-6.13a25.768 25.768 0 0 1 1.325-4.877c.668-1.746.683-.965.171-2.785-.395-1.408-.678-2.926-.648-4.387.02-.967 1.536-.938 1.516.029-.018.873.097 2 .434 3.362.119.483.266.996.446 1.539.644 1.94 1.71 4.269 2.58 6.093.147.306.292.612.434.916.67 1.438.258.495 1.085.775a.73.73 0 0 1 .467.937 3.673 3.673 0 0 0-.212 1.206c-.01 1.022.4 1.981.802 2.907 1.272 2.926 3.019 5.648 4.524 8.463.374.699 1.313 2.664 1.362 2.771.214.468.41.896.577 1.302.325.794.202.27.65.662.141.123.235.296.25.493.06.745-.198 1.678-.488 2.493-.154.436-.323.868-.52 1.289zM6.989 69.412c-.348 1.054-.371 1.996.25 3.322.986 2.105 1.11 3.543.83 4.34-.27.768-.978 1.215-1.808.979a2.144 2.144 0 0 1-.987-.634c-.678-.747-.71-.966-.68.155.007.26.02.526.041.804.072.933.229 2.009.44 3.405.645 4.257-3.768 4.618-4.483 1.211-.475-2.266-.65-4.86-.575-7.437.08-2.707.437-5.4 1.017-7.677C2.37 62.638 2.931 58.07 5 52.87l.009-.022.018-.035c.741-1.466 1.502-2.942 2.42-4.314 1.573-2.348 1.152-5.233 2.1-7.66.446-1.55.861-2.283 1.254-2.973.615-1.084.917-2.116 1.19-3.314.724-3.173 2.067-6.37 5.404-7.67l.018-.005c2.453-.892 9.083-3.498 9.725-6.172.296-1.237.21-2.703.048-3.75-.096-.248-.052-.52-.845-.959-.864-.6-1.097-1.652-1.343-2.765-.2-.909-.284-1.447.325-2.244.094-.124.187-.246.113-.649l-.003-.023C24.614 4.875 27.661 0 33.56 0c5.897 0 8.944 4.875 8.125 10.315l-.003.023c-.074.403.02.525.114.649.316.413.638.835.361 2.08v-.001c-.227 1.026-.44 2.278-1.38 2.93-.923.351-.77.432-.845.96-.153.986-.185 2.453.133 3.705.637 2.505 4.07 3.335 6.387 4.404 3.069 1.415 6.193 2.12 7.983 5.194.824 1.416 1.31 3.05 1.653 4.649.358 1.67.802 2.398 1.28 3.183 1.338 2.192 1.948 4.294 2.184 6.838.116 1.263.222 2.407 1.002 3.57.918 1.372 1.679 2.848 2.42 4.314l.018.035.01.023c1.678 4.218 2.184 6.728 2.793 9.742.906 4.489 2.052 8.274 2.189 12.944.076 2.577-.1 5.171-.575 7.437-.715 3.407-5.128 3.046-4.483-1.21.203-1.346.41-2.676.476-4.035.102-2.122.031-1.052-.699-.3-.289.299-.63.497-.963.604-.83.236-1.539-.21-1.808-.98-.63-1.797.774-3.665 1.178-5.365.34-1.434-.104-2.443-.817-4.014a66.115 66.115 0 0 0-1.35-2.738c-1.533-2.867-3.306-5.628-4.59-8.615-.407-.95-.74-1.875-.958-2.755-.295-1.196-.922-2.511-1.558-3.844a85.702 85.702 0 0 1-1.197-2.655c-.663-1.52-.52-1.666-1.017.05-.26.9-.528 2.008-.733 3.244-.292 1.763-.42 3.747-.144 5.698.309 2.075.152 3.27-.053 4.83a47.904 47.904 0 0 0-.196 1.646c-.099 1 .335 1.642.576 2.556.212.804.26 1.412.311 2.095.17 2.21.623 4.388 1.066 6.559.251 1.235.502 2.463.702 3.681.452 2.74.694 5.755.82 8.518.096 2.144.075 4.3-.184 6.444-.981 8.104-.38 10.872.347 14.221 1.397 6.436 1.464 10.919.621 17.406-.43 3.314-.844 6.492-.257 9.818.202 1.146.835 2.135 1.645 2.995.848.899 1.907 1.673 2.889 2.341.744.507 1.14 1.014 1.287 1.487.447 1.593-.957 2.398-2.795 2.235-.472.023-1.312.126-1.749.191-1.41.209-2.572.381-4.08-.737-.343-.255-.854-.314-1.331-.369-1.459-.167-2.732-.314-2.544-3.07.088-1.305.088-2.574.022-3.839-.155-2.969-.658-7.31-1.447-10.059-1.149-4.002-1.706-6.615-1.936-8.813-.231-2.215-.131-3.975.033-6.282-.022-2.403-1.3-3.659-2.146-5.658-.735-1.734-.942-3.191-1.171-4.808a44.6 44.6 0 0 0-.333-2.093c-.465-2.447-1.437-4.793-2.436-7.202-.71-1.712-1.433-3.456-2.01-5.308-.514-1.652-.278-1.659-.792-.005-.577 1.858-1.3 3.603-2.01 5.316-1 2.408-1.972 4.752-2.436 7.2-.454 2.39-.522 4.582-1.504 6.9-.463 1.093-1.083 1.981-1.563 3.034a6.161 6.161 0 0 0-.583 2.624c.164 2.307.264 4.067.033 6.282-.54 5.168-2.776 9.839-3.002 14.959l-.002.033-.004.033c-.346 2.563-.529 5.103-.353 7.686.188 2.756-1.085 2.903-2.543 3.07-.478.055-.989.114-1.333.369-1.507 1.118-2.668.946-4.08.737-1.399-.207-5.218-.241-4.543-2.426.146-.473.543-.98 1.287-1.487 1.894-1.29 3.992-2.739 4.534-5.336.587-3.326.174-6.504-.257-9.818-.843-6.487-.776-10.97.621-17.406.727-3.349 1.328-6.117.347-14.221-.513-4.238-.094-8.503.333-12.73.197-1.944.6-3.92 1.005-5.913.39-1.908.782-3.833.988-5.686.163-1.457.172-2.476.689-3.884.185-.506.345-.942.276-1.64a47.904 47.904 0 0 0-.196-1.646c-.205-1.56-.362-2.755-.053-4.83.272-1.92.152-3.887-.129-5.648a28.229 28.229 0 0 0-.714-3.238c-.522-1.846-.38-1.635-1.094.01a78.042 78.042 0 0 1-1.154 2.54c-.636 1.332-1.263 2.647-1.558 3.843-.63 2.551-2.001 5.069-3.32 7.42-.96 1.712-1.961 3.447-2.86 5.213-.549 1.078-1.046 2.007-1.437 3.193zM40.48 97.874a.421.421 0 0 1 .002.08c.075.458.136.893.197 1.317.216 1.519.41 2.886 1.07 4.445.48 1.131 1.153 2.078 1.73 3.153.412.766.855 1.694 1.165 2.633a.721.721 0 0 1-.2.758c-.504.466-.44-.266-.516.94-.105 1.644-.137 3.158.041 4.871.221 2.111.764 4.648 1.888 8.565.937 3.264 1.324 7.001 1.501 10.382.07 1.323.07 2.646-.022 4.001-.093 1.364.512 1.433 1.206 1.513.676.078 1.398.161 2.075.663.993.736 1.868.606 2.932.449.89-.132 1.284-.187 2.092-.123 1.097.086 1.69-.327.517-1.127-1.043-.71-2.178-1.542-3.132-2.554-.992-1.052-1.77-2.281-2.027-3.739-.622-3.529-.194-6.82.252-10.25.822-6.322.758-10.65-.603-16.922-.756-3.479-1.38-6.355-.372-14.688.251-2.07.271-4.15.178-6.213-.118-2.617-.323-5.702-.793-8.291-.107-.591.043-.546-.895-.546-3.589 0-8.072.395-11.07 2.291-.734.465-1.285 1.128-2.042 1.584-.757.454-.627.092-.397 1.139.58 2.649 1.581 5.065 2.558 7.42l.453 1.097c.9 2.2 1.034 2.717.491-.073a22.402 22.402 0 0 0-.6-2.376c-.173-.555.697-.81.87-.255.817 2.608.997 4.782 1.187 7.086.074.897.15 1.814.264 2.77zm6.252 16.277c-.188-.551.675-.828.863-.277.682 1.981.622 5.039.032 7.038-.164.56-1.042.318-.878-.242.541-1.834.608-4.701-.017-6.519zm-26.232-.277c.188-.551 1.051-.274.863.277-.625 1.818-.558 4.685-.017 6.519.164.56-.713.802-.878.242-.59-1.999-.65-5.057.032-7.038zm28.051-5.594c.207-.546 1.063-.242.856.304l-.001.005c-.434 1.138-1.993 1.457-3.072 1.076l-.009-.003c-.563-.198-.253-1.028.31-.83l.01.003c.593.21 1.655.103 1.904-.55l.002-.005zm-27.106 1.404c-1.072.307-2.542.034-2.995-1.042-.257-.613.588-.887.808-.418.32.682 1.164.86 1.88.629.686-.222.842.678.307.831zm20.133-57.24c.115-.488.946-.405.897.103-.145 1.514-3.282 2.201-4.46 1.969-.586-.116-.404-.981.182-.865.815.16 3.164-.29 3.38-1.207zm.894-4.118c-.15 1.443-3.25 2.157-4.457 1.919-.586-.116-.404-.981.182-.865.704.139 3.155-.344 3.361-1.1.208-.768.961-.415.914.046zm-16.443 4.27c-.057-.558.788-.657.897-.14.184.873 2.61 1.346 3.378 1.195.587-.116.769.748.182.864-1.207.239-4.307-.475-4.457-1.918zm7.773-5.294c0-.58.91-.58.91 0l.008 8.215c0 .58-.91.58-.91 0l-.008-8.215zm-7.773 1.024c-.055-.542.763-.673.895-.148.228.908 2.559 1.364 3.38 1.202.587-.116.769.749.182.865-1.223.241-4.308-.484-4.457-1.92zm8.25 10.498c.418 0 .757.224.757.5s-.339.5-.757.5-.757-.224-.757-.5.339-.5.757-.5zm4.407-33.87c.387-.443 1.083.128.696.57-.986 1.132-3.494 1.242-3.633 2.153-.087.576-.99.448-.903-.128.274-1.793 2.814-1.418 3.84-2.595zm-10.2.57c-.386-.442.31-1.013.696-.57 1.026 1.177 3.567.802 3.84 2.595.087.576-.815.704-.902.128-.139-.911-2.647-1.02-3.633-2.152zm4.22 54.684c1.078.716 1.473.735 2.552.05 1.007-.64 1.703-1.434 2.057-2.567.277-.884.303-1.748.254-2.239-.056-.578.85-.66.906-.083.05.49.034 1.3-.175 2.164-.202.835-.449.784.476.385 2.989-1.29 6.639-1.605 9.918-1.61.837 0 .695-.001.608-.541-.092-.573-.228-1.144-.346-1.72-.454-2.23-.915-4.466-1.089-6.737-.046-.607-.088-1.148-.27-1.836a8.12 8.12 0 0 0-.224-.691c-.314-.868-.096-.742-1.016-.491-7.09 1.929-17.692 2.162-24.793.265-.953-.254-.797-.33-1.087.692-.287 1.012-.303 1.867-.428 2.986-.216 1.94-.612 3.884-1.005 5.813-.101.495-.19.992-.3 1.48-.143.64-.14.78.65.78 1.29.003 3.1.053 5.004.324 1.647.234 3.37.633 4.912 1.305.878.383.643.423.447-.373-.216-.875-.233-1.698-.183-2.195.056-.577.962-.495.906.083a5.73 5.73 0 0 0 .202 2.061c.347 1.229.941 1.974 2.025 2.695zm10.886-40.576a.58.58 0 0 1 .588.57.58.58 0 0 1-.588.57.58.58 0 0 1-.587-.57.58.58 0 0 1 .587-.57zm-18.741 0a.58.58 0 0 1 .588.57.58.58 0 0 1-.588.57.58.58 0 0 1-.588-.57.58.58 0 0 1 .588-.57zm8.692-5.795c0-.582.914-.582.914 0v4.56c0 .583-.914.583-.914 0v-4.56zm12.882 6.17c.232-.534 1.07-.192.838.343-1.714 3.942-9.022 3.221-11.731.91-.45-.384.153-1.048.603-.664 2.237 1.908 8.843 2.737 10.29-.589zm-25.686.348c-.24-.532.595-.885.835-.353 1.511 3.346 8.39 2.507 10.725.589.457-.375 1.045.3.588.675-2.803 2.302-10.36 3.047-12.148-.911z"/>
</svg>
