<svg xmlns="http://www.w3.org/2000/svg" width="18" height="16" viewBox="0 0 18 16">
    <path fill="#FFF" fill-rule="nonzero" d="M6.002 2.975v.681h6.182v-.68c0-.543-.286-.821-.828-.821H6.83c-.542 0-.828.278-.828.82zm11.316 2.952v1.845H.868V5.927c0-1.494.871-2.27 2.3-2.27H4.64v-.58C4.64 1.606 5.46.91 6.815.91h4.556c1.413 0 2.175.695 2.175 2.168v.578h1.472c1.487 0 2.3.777 2.3 2.27zm-14.15 9.382c-1.495 0-2.3-.784-2.3-2.27v-4.19h5.258v.432c0 .652.472.576 1.124.576h3.845c.652 0 .942.076.942-.576V8.85h5.28v4.19c0 1.486-.812 2.27-2.299 2.27H3.168z"/>
</svg>
