<?xml version="1.0" encoding="UTF-8"?>
<svg width="16px" height="24px" viewBox="0 0 16 24" version="1.1" xmlns="http://www.w3.org/2000/svg" xmlns:xlink="http://www.w3.org/1999/xlink">
    <!-- Generator: Sketch 52.2 (67145) - http://www.bohemiancoding.com/sketch -->
    <title>Icon</title>
    <desc>Created with Sketch.</desc>
    <g id="Webpages" stroke="none" stroke-width="1" fill="none" fill-rule="evenodd">
        <g id="Page-Résultat" transform="translate(-229.000000, -618.000000)" fill="#5856D6">
            <g id="Col1" transform="translate(110.000000, 121.000000)">
                <g id="Share-Button" transform="translate(12.000000, 487.000000)">
                    <g id="_Glyphs-/-Nav-&amp;-Toolbar-/-Share" transform="translate(107.000000, 10.000000)">
                        <path d="M8.36777349,0.165442443 L12.131698,3.99020497 C12.3898112,4.25291959 12.3898112,4.68232211 12.131698,4.94594264 C12.0067169,5.0736763 11.840981,5.14343156 11.6652829,5.14343156 C11.4886791,5.14252565 11.3247546,5.0736763 11.1997735,4.94594264 L8.6693584,2.37586891 L8.6693584,16.0768894 C8.6693584,16.4501253 8.37320745,16.7527001 8.00913198,16.7527001 C7.64505651,16.7527001 7.34890557,16.4501253 7.34890557,16.0768894 L7.34890557,2.40848176 L4.84928292,4.94594264 C4.59932066,5.20140996 4.16550934,5.20050405 3.9173584,4.94684855 C3.65833953,4.68232211 3.65833953,4.25291959 3.9173584,3.99020497 L7.68128292,0.165442443 C7.89864141,-0.0556002046 8.15222632,-0.0546942921 8.36777349,0.165442443 M15.9490565,9.73187832 L15.9490565,22.4146531 C15.9490565,23.2897646 15.2390188,24 14.3641508,24 L1.68490557,24 C0.80913198,24 0.0999999046,23.2897646 0.0999999046,22.4146531 L0.0999999046,9.73187832 C0.0999999046,8.85586094 0.80913198,8.14653146 1.68490557,8.14653146 L5.07207538,8.14653146 L5.07207538,9.50540019 L2.28807538,9.50540019 C1.82981123,9.50540019 1.45849047,9.87682431 1.45849047,10.335216 L1.45849047,21.8113154 C1.45849047,22.2688012 1.82981123,22.6411313 2.28807538,22.6411313 L13.760981,22.6411313 C14.2192452,22.6411313 14.5905659,22.2688012 14.5905659,21.8113154 L14.5905659,10.335216 C14.5905659,9.87682431 14.2192452,9.50540019 13.760981,9.50540019 L10.9679244,9.50540019 L10.9679244,8.14653146 L14.3641508,8.14653146 C15.2390188,8.14653146 15.9490565,8.85586094 15.9490565,9.73187832" id="Icon"></path>
                    </g>
                </g>
            </g>
        </g>
    </g>
</svg>