<svg xmlns="http://www.w3.org/2000/svg" width="19" height="14" viewBox="0 0 19 14">
    <path fill="#FFF" fill-rule="evenodd" d="M12.5 11.985l-6.5.008V12a2 2 0 1 1-4-.002 2 2 0 0 1-2-2V6.489a2 2 0 0 1 .455-1.27l2.862-3.48a2 2 0 0 1 1.537-.73L9.929.99a2 2 0 0 1 1.733.989l2.363 4.031 1.799.007a2 2 0 0 1 1.73 1.01l1.124 1.972a1.995 1.995 0 0 1-1.731 2.982H16.5V12a2 2 0 1 1-4-.015zM8.833 2.01a1 1 0 0 0-.983 1v1.993a1 1 0 0 0 .983 1l2.401.04a1 1 0 0 0 .919-1.432l-.845-1.766a1.5 1.5 0 0 0-1.378-.853l-1.097.018zm-3.323.017a1.5 1.5 0 0 0-1.19.587L2.966 4.38a1 1 0 0 0 .794 1.608h1.867a1 1 0 0 0 1-1V2.956a.93.93 0 0 0-.93-.93H5.51z"/>
</svg>
