<svg xmlns="http://www.w3.org/2000/svg" width="20" height="15" viewBox="0 0 20 15">
    <g fill="#FFF" fill-rule="evenodd" transform="translate(.484 .53)">
        <path d="M16.515 11.99a2 2 0 0 1-4-.004l-10.5-.012a2 2 0 0 1-1.997-2L.016 6.655a2 2 0 0 0 0-.006L0 2.058A2 2 0 0 1 1.989.05L11.246 0a2 2 0 0 1 1.84 1.19l2.508 5.667 1.487.038a2 2 0 0 1 1.949 1.966l.018 1.097a2 2 0 0 1-2.002 2.033h-.53zM10.072 1.08a1 1 0 0 0-1.013 1.006l.024 3.983a1 1 0 0 0 1.005.994l2.759-.013a1 1 0 0 0 .912-1.399l-1.722-3.957a1 1 0 0 0-.904-.6l-1.061-.014z"/>
        <circle cx="4.016" cy="11.971" r="2"/>
    </g>
</svg>
