<svg xmlns="http://www.w3.org/2000/svg" width="23" height="15" viewBox="0 0 23 15">
    <path fill="#FFF" fill-rule="evenodd" d="M16.044 12.972l-9-.01a2 2 0 0 1-4-.003h-.019a2 2 0 0 1-1.998-2l-.002-3.312a2 2 0 0 0 0-.02L.973 2.525a2 2 0 0 1 1.99-2.02l7.623-.038h5.724a1.784 1.784 0 0 1 .287 3.546l2.024 3.83 1.925.042a2 2 0 0 1 1.955 1.963l.02 1.09a2 2 0 0 1-2 2.038h-.477a2 2 0 0 1-4-.004zm-2.642-8.92h-.008a1 1 0 0 0-.992 1.009l.017 1.996a1 1 0 0 0 1.003.992l2.354-.008a1 1 0 0 0 .89-1.45l-1.004-1.989a1 1 0 0 0-.893-.55h-1.367zm-8.807.004a1 1 0 0 0-1.004 1.01l.018 1.995a1 1 0 0 0 1 .991h1.935a1 1 0 0 0 1-1V5.064a1 1 0 0 0-.996-1l-1.953-.008z"/>
</svg>
