<svg xmlns="http://www.w3.org/2000/svg" viewBox="0 0 682 445" width="682" height="445">
	<style>
		tspan { white-space:pre }
		.shp0 { fill: #fff } 
	</style>
	<path id="Layer" fill-rule="evenodd" class="shp0" d="M13.35 378.38C10 378.35 6.8 376.97 4.48 374.55C2.16 372.14 0.91 368.89 1 365.55L1 244.15C1.01 241.61 1.8 239.13 3.25 237.05L12.98 223.21L39.64 185.82L107.82 88.24C110.14 84.89 113.96 82.89 118.04 82.88L223.61 82.88L223.61 12.96C223.61 6.08 229.19 0.5 236.06 0.5L668.54 0.5C675.42 0.5 681 6.08 681 12.96L681 365.92C681 372.8 675.42 378.38 668.54 378.38L589.65 378.38C585.27 416.1 553.33 444.55 515.36 444.55C477.4 444.55 445.47 416.1 441.09 378.38L199.3 378.38C194.92 416.1 162.98 444.55 125.02 444.55C87.05 444.55 55.11 416.1 50.74 378.38L13.35 378.38ZM124.77 416.39C152.4 416.05 174.62 393.55 174.62 365.92C174.62 338.39 152.3 316.07 124.77 316.07C97.24 316.07 74.91 338.39 74.91 365.92C74.91 393.45 97.24 415.77 124.77 415.77L124.77 416.39ZM515.11 416.39C542.75 416.05 564.97 393.55 564.97 365.92C564.97 338.39 542.65 316.07 515.11 316.07C487.58 316.07 465.26 338.39 465.26 365.92C465.26 393.45 487.58 415.77 515.11 415.77L515.11 416.39ZM248.53 25.43L248.53 57.2L338.51 57.2C345.39 57.2 350.97 62.79 350.97 69.67C350.97 76.55 345.39 82.13 338.51 82.13L248.53 82.13L248.53 353.46L440.84 353.46C445.21 315.75 477.15 287.3 515.11 287.3C553.08 287.3 585.02 315.75 589.4 353.46L655.82 353.46L655.82 273.7L317.45 273.7C310.57 273.7 304.98 268.11 304.98 261.23C304.98 254.35 310.57 248.77 317.45 248.77L655.82 248.77L655.82 25.43L248.53 25.43ZM111.8 125.63L181.6 125.63C188.48 125.63 194.06 131.21 194.06 138.1L194.06 230.32C194.06 237.21 188.48 242.78 181.6 242.78L29.55 242.78L25.81 248.14L25.81 353.46L50.74 353.46C55.11 315.75 87.05 287.3 125.02 287.3C162.98 287.3 194.92 315.75 199.3 353.46L224.22 353.46L224.22 107.81L124.52 107.81L111.8 125.63ZM46.87 218.11L169.14 218.11L169.14 150.81L94.36 150.81L46.87 218.11Z" />
</svg>