<svg xmlns="http://www.w3.org/2000/svg" viewBox="0 0 200 239" width="200" height="239">
	<style>
		tspan { white-space:pre }
		.shp0 { fill: #fff } 
	</style>
	<path id="Shape 1" class="shp0" d="M157.55 134.04C161.45 136.16 164.91 137.79 168.09 139.86C171.84 142.3 175.68 144.76 178.88 147.85C182.61 151.46 185.41 155.42 191.63 155.79C196.7 156.09 199.85 161.27 199.88 166.82C199.97 186.82 200 206.83 199.86 226.83C199.8 234.6 194.86 238.95 186.46 238.96C150.17 239 113.88 238.98 77.59 238.98C53.61 238.97 29.64 238.97 5.67 238.97C4.03 238.97 2.39 238.97 0.05 238.97C0.05 236.88 0.05 235.12 0.05 233.36C0.05 215.86 0.09 198.35 0.05 180.85C0 161.91 8.17 147.95 25 139.15C27.94 137.62 30.85 136.01 34.12 134.24C33.34 132.83 32.67 131.57 31.95 130.35C27.4 122.68 24.86 114.36 25.84 105.51C27.91 86.81 29.78 68.03 33.06 49.52C36.5 30.07 48.17 16.06 65.9 7.45C97.75 -8 133.86 1.77 151.59 30.36C157.27 39.51 159.57 49.64 160.78 60.17C162.31 73.42 163.98 86.64 165.73 99.86C167.36 112.08 165.29 123.41 157.55 134.04ZM131.77 194.81C131.77 199 131.77 202.59 131.77 206.18C128.93 206.18 126.56 206.18 123.8 206.18C123.8 202.14 123.8 198.54 123.8 195.08C113.93 191.94 111.99 189.23 111.98 179C111.98 175.66 111.97 172.33 111.98 168.99C112.02 158.78 116.05 154.63 126.11 154.6C140.27 154.56 154.43 154.59 168.58 154.59C170.08 154.59 171.57 154.59 173.9 154.59C172.82 153.17 172.61 152.65 172.22 152.42C162.76 146.91 153.31 141.36 143.74 136.04C142.7 135.47 140.82 136.04 139.47 136.48C130.15 139.55 120.84 142.68 111.56 145.89C103.9 148.55 100.13 153.91 99.99 162.12C99.95 164.9 99.99 167.69 99.99 170.61C97.08 170.61 94.7 170.61 91.99 170.61C91.99 167.96 92 165.65 91.99 163.34C91.94 153.58 88.41 148.6 79.21 145.46C70.39 142.45 61.59 139.37 52.69 136.64C50.72 136.04 48.05 136.18 46.2 137.05C39.74 140.1 33.4 143.46 27.18 146.99C14.89 153.97 8.32 164.61 8.12 178.81C7.92 193.81 8.06 208.82 8.04 223.83C8.04 226.1 8.04 228.37 8.04 230.71C20.31 230.71 31.89 230.71 44.08 230.71C44.08 213.38 44.08 196.31 44.08 179.19C46.97 179.19 49.23 179.19 52.08 179.19C52.08 196.48 52.08 213.55 52.08 230.63C69.87 230.63 87.06 230.63 104.27 230.63C103.35 218.65 107.63 214.11 119.45 214.12C131.11 214.13 142.77 214.12 154.43 214.12C156.17 214.12 157.92 214.12 159.94 214.12C159.94 203.51 159.9 193.69 159.97 183.87C159.99 180.59 159.1 178.1 155.37 178.17C151.62 178.23 146.77 176.61 145.82 182.56C144.59 190.26 140.31 194.47 131.77 194.81ZM41.78 130.85C49.91 126.49 57.57 122.39 65.52 118.13C58.26 110.61 53.25 102.57 52.67 92.95C51.89 80.16 52.08 67.31 52.26 54.49C52.32 50.23 55.06 47.1 59.14 45.44C63.91 43.49 68.69 41.56 73.45 39.58C83.86 35.26 94.71 33.33 105.68 35.96C114.53 38.09 123.06 41.54 131.69 44.52C137.61 46.56 140.36 50.87 140.31 57.12C140.25 63.79 140.08 70.47 140.38 77.12C141.07 92.26 138.74 106.35 126.76 117.69C135.05 122.12 142.76 126.23 150.65 130.44C156.93 122.47 159.47 113.87 158.41 104.38C156.65 88.65 154.7 72.94 152.61 57.25C149.81 36.14 138.36 21.85 118.99 12.94C102.71 5.45 87.41 6.2 71.49 13.78C54.78 21.73 43.74 34.07 40.67 52.28C37.71 69.85 35.89 87.62 33.96 105.34C32.95 114.63 35.72 123.1 41.78 130.85ZM60.01 73.04C60.01 77.38 59.98 81.71 60.02 86.04C60.21 103.61 71.98 118.13 89.1 121.95C108.89 126.37 129.98 109.85 131.38 88.31C132.04 78.02 131.64 67.66 131.48 57.33C131.45 55.76 130.47 53.31 129.27 52.79C119.25 48.42 109.45 43.37 98.14 42.77C85.09 42.09 73.86 47.68 62.47 52.67C61.19 53.24 60.22 55.84 60.12 57.56C59.82 62.7 60.01 67.88 60.01 73.04ZM191.89 214.71C191.89 198.85 192.01 183.24 191.7 167.64C191.67 166.17 188.98 164.69 187.4 163.36C187 163.03 186.11 163.28 185.44 163.28C165.81 163.28 146.19 163.26 126.56 163.29C120.79 163.3 120.03 164.14 120 170C119.98 174 119.83 178 120.04 181.99C120.13 183.51 120.88 186.19 121.6 186.29C125.98 186.88 130.53 187.46 134.82 186.77C136.4 186.52 137.92 182.94 138.62 180.62C140.51 174.32 144.25 171.12 150.81 170.94C164.08 170.56 167.9 174.21 167.95 187.38C167.98 195.04 167.93 202.7 167.95 210.36C167.95 211.79 168.14 213.23 168.24 214.71C176.22 214.71 183.8 214.71 191.89 214.71ZM95.97 148.05C105.25 136.12 120.33 136.79 132.44 130.19C128.81 128.25 125.7 126.28 122.35 124.94C120.79 124.31 118.36 124.21 116.99 125.01C102.88 133.22 88.92 133.08 74.88 124.93C73.83 124.32 72.18 123.66 71.29 124.06C67.37 125.87 63.63 128.05 59.56 130.24C71.78 136.72 86.52 136.16 95.97 148.05ZM191.41 222.99C185.38 222.99 179.27 222.99 173.16 222.99C154.72 222.99 136.29 222.98 117.85 223.01C113.34 223.02 110.68 225.47 112.39 228.18C113.35 229.7 116.1 230.84 118.05 230.86C140.47 231.04 162.89 230.98 185.31 230.97C191.52 230.96 192.32 229.97 191.41 222.99ZM99.57 186.84C97.02 186.84 94.9 186.84 92.37 186.84C92.37 184.38 92.37 182.01 92.37 179.28C94.65 179.28 97.01 179.28 99.57 179.28C99.57 181.82 99.57 184.3 99.57 186.84ZM92.27 195.2C94.73 195.2 96.98 195.2 99.62 195.2C99.62 197.56 99.62 199.92 99.62 202.63C97.29 202.63 94.93 202.63 92.27 202.63C92.27 200.17 92.27 197.81 92.27 195.2ZM183.65 190.69C181.18 190.69 178.93 190.69 176.29 190.69C176.29 184.36 176.29 178 176.29 171.28C178.62 171.28 180.98 171.28 183.65 171.28C183.65 177.72 183.65 184.08 183.65 190.69ZM176.25 199.05C178.86 199.05 180.99 199.05 183.53 199.05C183.53 201.5 183.53 203.86 183.53 206.6C181.3 206.6 178.94 206.6 176.25 206.6C176.25 204.24 176.25 201.88 176.25 199.05Z" />
</svg>