<svg xmlns="http://www.w3.org/2000/svg" viewBox="0 0 487 512" width="487" height="512">
	<style>
		tspan { white-space:pre }
		.shp0 { fill: #fff } 
	</style>
	<path id="Layer" fill-rule="evenodd" class="shp0" d="M481.99 202.56C490.03 220.25 487.03 241.19 474.34 255.91L373.43 372.9L393.36 500.46C393.8 503.34 392.97 506.28 391.07 508.5C389.17 510.72 386.4 512 383.48 512L303.48 512C278.04 512 255.73 498.36 243.48 478.01C231.22 498.36 208.91 512 183.48 512L103.48 512C100.55 512 97.78 510.72 95.87 508.5C93.98 506.29 93.14 503.34 93.59 500.46L113.52 372.91L12.61 255.91C-0.08 241.19 -3.08 220.25 4.96 202.56L61.39 78.43C65.79 68.73 73.04 60.82 82.34 55.57L178.56 1.29C180.02 0.47 181.67 0.03 183.35 0.01C183.39 0.01 183.43 0 183.48 0L303.48 0C305.11 0 306.87 0.43 308.39 1.29L404.61 55.57C413.91 60.82 421.16 68.73 425.56 78.44L481.99 202.56ZM314.53 114.47C313 111.41 313.14 107.79 314.9 104.85L349.39 47.38L309.99 25.16L261.93 217.4L326.21 153.12C329.26 150.07 330.01 145.44 328.08 141.58L314.53 114.47ZM459.19 242.85C466.81 234.02 468.61 221.45 463.78 210.84L407.35 86.71C404.71 80.88 400.36 76.14 394.78 72.99L366.81 57.21L334.87 110.44L345.97 132.64C351.75 144.2 349.5 158.12 340.36 167.26L250.54 257.07C248.75 258.87 246.18 259.99 243.5 260C243.49 260 243.48 260 243.48 260L243.47 260C243.46 260 243.46 260 243.45 260C240.78 259.99 238.22 258.89 236.4 257.07L146.59 167.26C137.45 158.12 135.2 144.2 140.98 132.64L152.07 110.44L120.14 57.21L92.17 72.99C86.59 76.14 82.24 80.88 79.6 86.7L23.17 210.84C18.34 221.45 20.14 234.02 27.76 242.85L117.57 346.98L123.33 310.16C122.84 307.53 121.8 301.99 120.39 294.49L66.86 232.42C64.32 229.47 63.72 225.3 65.33 221.75L95.96 154.36C97.77 150.39 101.94 148.05 106.27 148.57C110.6 149.1 114.09 152.37 114.89 156.66C118.27 174.69 140.3 292.15 143.3 308.15C143.51 309.27 143.53 310.42 143.36 311.55L115.16 492L183.48 492C211.04 492 233.48 469.57 233.48 442L233.48 327.5C233.48 321.98 237.95 317.5 243.48 317.5C249 317.5 253.48 321.98 253.48 327.5L253.48 442C253.48 469.57 275.91 492 303.48 492L371.79 492L343.6 311.55C343.42 310.42 343.44 309.27 343.65 308.15C346.68 291.96 368.57 175.28 372.06 156.66C372.86 152.37 376.35 149.1 380.68 148.57C385.01 148.05 389.18 150.39 390.99 154.36L421.62 221.75C423.23 225.3 422.64 229.47 420.09 232.42L366.56 294.49C365.15 301.99 364.11 307.53 363.62 310.16L369.37 346.98L459.19 242.85ZM172.42 114.47L158.87 141.58C156.94 145.44 157.69 150.07 160.73 153.12L225.02 217.4L176.96 25.16L137.56 47.38L172.05 104.86C173.81 107.79 173.95 111.41 172.42 114.47ZM290.67 20L196.28 20L201.28 40L285.67 40L290.67 20ZM280.67 60L206.28 60L243.48 208.77L280.67 60ZM400.77 224.2L385.88 191.45L373.89 255.36L400.77 224.2ZM101.07 191.45L86.19 224.2L113.05 255.36L101.07 191.45ZM333.48 370C333.48 375.52 329 380 323.48 380L283.48 380C277.95 380 273.48 375.52 273.48 370C273.48 364.48 277.95 360 283.48 360L323.48 360C329 360 333.48 364.48 333.48 370ZM213.48 370C213.48 375.52 209 380 203.48 380L163.48 380C157.95 380 153.48 375.52 153.48 370C153.48 364.48 157.95 360 163.48 360L203.48 360C209 360 213.48 364.48 213.48 370Z" />
</svg>