<svg xmlns="http://www.w3.org/2000/svg" width="65" height="65" viewBox="0 0 65 65">
    <path fill="#B0AAB3" fill-rule="evenodd" d="M32.268.393C14.673.393.393 14.673.393 32.268s14.28 31.875 31.875 31.875 31.875-14.28 31.875-31.875S49.863.393 32.268.393zM16.33 52.59c1.39-2.837 9.86-5.612 15.938-5.612 6.077 0 14.58 2.775 15.937 5.612-4.396 3.404-9.924 5.422-15.937 5.422s-11.541-2.018-15.938-5.422zm36.405-4.386c-4.602-5.486-15.769-7.347-20.467-7.347-4.699 0-15.866 1.86-20.468 7.347-3.282-4.225-5.277-9.491-5.277-15.23 0-13.906 11.553-25.226 25.745-25.226s25.745 11.32 25.745 25.226c0 5.739-1.995 11.005-5.278 15.23zM32.268 13.878a11.006 11.006 0 0 0-11.034 11.034 11.006 11.006 0 0 0 11.034 11.034 11.006 11.006 0 0 0 11.034-11.034 11.006 11.006 0 0 0-11.034-11.034zm0 15.938a4.897 4.897 0 0 1-4.904-4.904 4.897 4.897 0 0 1 4.904-4.904 4.897 4.897 0 0 1 4.904 4.904 4.897 4.897 0 0 1-4.904 4.904z" opacity=".2"/>
</svg>
