<svg xmlns="http://www.w3.org/2000/svg" width="24" height="24" viewBox="0 0 24 24">
    <path fill="#8d66db" fill-rule="evenodd" d="M.75 0h16.5a.75.75 0 0 1 .75.75v17.244h3c1.654 0 3 1.347 3 3.003v2.252a.75.75 0 0 1-.75.751H9.75a.75.75 0 0 1-.75-.75v-2.253c0-.828-.673-1.501-1.5-1.501S6 20.169 6 20.997A3.004 3.004 0 0 1 3 24c-1.655 0-3-1.347-3-3.003V.751A.75.75 0 0 1 .75 0zm9.75 20.997V22.5h12v-1.502c0-.828-.673-1.501-1.5-1.501H10.097c.257.442.403.955.403 1.501zm-6-6.006h9V13.49h-9v1.501zm0-4.504h9V8.985h-9v1.502zm0-4.504h9V4.48h-9v1.502z"/>
</svg>
