<svg xmlns="http://www.w3.org/2000/svg" width="24" height="24" viewBox="0 0 24 24">
    <g fill="none" fill-rule="evenodd">
        <path d="M0 0h24v24H0z"/>
        <path fill="#8d66db" d="M16.005 11A2.99 2.99 0 0 0 19 8c0-1.66-1.332-3-2.995-3A2.998 2.998 0 0 0 13 8c0 1.66 1.342 3 3.005 3zm-7 0A2.99 2.99 0 0 0 12 8c0-1.66-1.332-3-2.995-3A2.998 2.998 0 0 0 6 8c0 1.66 1.342 3 3.005 3zm-.278 1.5C6.821 12.5 3 13.42 3 15.25v2.179c0 .432.368.785.818.785h9.818c.45 0 .819-.353.819-.785V15.25c0-1.83-3.821-2.75-5.728-2.75zm6.546 0c-.238 0-.508.016-.794.04.016.007.025.023.033.03.933.653 1.579 1.525 1.579 2.68v2.179c0 .275-.057.542-.147.785h4.238c.45 0 .818-.353.818-.785V15.25c0-1.83-3.82-2.75-5.727-2.75z"/>
    </g>
</svg>
