<svg xmlns="http://www.w3.org/2000/svg" width="24" height="24" viewBox="0 0 24 24">
    <g fill="none" fill-rule="evenodd">
        <path d="M0 0h24v24H0z"/>
        <path fill="#1F1F1F" d="M21 2.51c-.13 0-.26.048-.35.145l-.79.766a.506.506 0 0 1-.71 0l-.79-.766a.506.506 0 0 0-.71 0l-.79.766a.506.506 0 0 1-.71 0l-.79-.766a.506.506 0 0 0-.71 0l-.79.766a.506.506 0 0 1-.71 0l-.79-.766a.506.506 0 0 0-.71 0l-.79.766a.506.506 0 0 1-.71 0l-.8-.776a.506.506 0 0 0-.71 0l-.79.776a.506.506 0 0 1-.71 0l-.79-.776a.506.506 0 0 0-.71 0l-.79.776a.506.506 0 0 1-.71 0l-.79-.776A.508.508 0 0 0 3 2.51V21.5c.13 0 .26-.048.35-.145l.79-.766c.2-.194.51-.194.71 0l.79.766c.2.193.51.193.71 0l.79-.766c.2-.194.51-.194.71 0l.79.766c.2.193.51.193.71 0l.79-.766c.2-.194.51-.194.71 0l.79.766c.2.193.51.193.71 0l.79-.766c.2-.194.51-.194.71 0l.79.766c.2.193.51.193.71 0l.79-.766c.2-.194.51-.194.71 0l.79.766c.2.193.51.193.71 0l.79-.766c.2-.194.51-.194.71 0l.79.766c.1.097.23.145.35.145V2.51H21zm-4 14.283H7c-.55 0-1-.45-1-1s.45-1 1-1h10c.55 0 1 .45 1 1s-.45 1-1 1zm0-4H7c-.55 0-1-.45-1-1s.45-1 1-1h10c.55 0 1 .45 1 1s-.45 1-1 1zm0-4H7c-.55 0-1-.45-1-1s.45-1 1-1h10c.55 0 1 .45 1 1s-.45 1-1 1z"/>
    </g>
</svg>
