<svg xmlns="http://www.w3.org/2000/svg" width="21" height="14" viewBox="0 0 21 14">
    <path fill="#1D1D1D" fill-rule="evenodd" d="M19.09 1v12c0 .55.43 1 .955 1 .525 0 .955-.45.955-1V1c0-.55-.43-1-.955-1-.525 0-.954.45-.954 1zm-2.863 13c.525 0 .955-.45.955-1V1c0-.55-.43-1-.955-1-.525 0-.954.45-.954 1v12c0 .55.43 1 .954 1zM12.41 0H.955C.43 0 0 .45 0 1v12c0 .55.43 1 .955 1h11.454c.525 0 .955-.45.955-1V1c0-.55-.43-1-.955-1zM6.682 2.75C7.865 2.75 8.83 3.76 8.83 5s-.965 2.25-2.148 2.25C5.498 7.25 4.534 6.24 4.534 5s.964-2.25 2.148-2.25zM10.977 12h-8.59v-.75C2.386 9.75 5.25 9 6.681 9s4.295.75 4.295 2.25V12z"/>
</svg>
