<svg xmlns="http://www.w3.org/2000/svg" width="91" height="24" viewBox="0 0 91 24">
    <path fill="#8D66DB" fill-rule="evenodd" d="M36.917 5.4c1.728 0 3.172.606 4.33 1.818 1.159 1.212 1.738 2.706 1.738 4.482 0 1.776-.58 3.27-1.738 4.482C40.09 17.394 38.645 18 36.917 18H31.91V5.4h5.006zm0 10.224c1.092 0 1.98-.363 2.665-1.089.684-.726 1.026-1.671 1.026-2.835s-.342-2.109-1.026-2.835c-.685-.726-1.573-1.089-2.665-1.089h-2.521v7.848h2.52zm14.443 2.628c-1.404 0-2.557-.396-3.457-1.188-.9-.792-1.35-1.854-1.35-3.186V5.4h2.466v8.28c0 .66.19 1.182.568 1.566.378.384.969.576 1.773.576.805 0 1.396-.192 1.774-.576.378-.384.567-.906.567-1.566V5.4h2.485v8.478c0 1.332-.45 2.394-1.35 3.186-.9.792-2.06 1.188-3.476 1.188zm11.545-2.628h5.312V18H60.42V5.4h7.707v2.376h-5.222v2.682h4.772v2.34h-4.772v2.826zm11.544 0h4.808V18h-7.293V5.4h2.485v10.224zM91 5.4l-4.322 7.686V18h-2.467v-4.914L79.908 5.4h2.809l2.737 5.256L88.19 5.4H91zM.75 0h16.507a.75.75 0 0 1 .75.75v17.244h3.001a3.005 3.005 0 0 1 3.001 3.003v2.252a.75.75 0 0 1-.75.751H9.754a.75.75 0 0 1-.75-.75v-2.253c0-.828-.673-1.501-1.501-1.501-.828 0-1.5.673-1.5 1.501A3.005 3.005 0 0 1 3 24 3.005 3.005 0 0 1 0 20.997V.751A.75.75 0 0 1 .75 0zm9.754 20.997V22.5H22.51v-1.502c0-.828-.673-1.501-1.5-1.501H10.1c.257.442.403.955.403 1.501zm-6.002-6.006h9.003V13.49H4.502v1.501zm0-4.504h9.003V8.985H4.502v1.502zm0-4.504h9.003V4.48H4.502v1.502z"/>
</svg>
