<svg xmlns="http://www.w3.org/2000/svg" width="315" height="328" viewBox="0 0 315 328">
    <g fill="none" fill-rule="evenodd">
        <g transform="translate(11.4 77.6)">
            <ellipse cx="205.062" cy="146.002" fill="#15B0FF" rx="51.332" ry="51.951"/>
            <path fill="#CEE0EB" d="M56.592.368c.15.114.338.304.413.495 1.315 4.224 2.818 12.558-.977 21.006-1.09 2.474-4.434 9.857-11.347 11.95-.263 4.528-1.503 9.323-4.246 13.357-3.156 4.719-7.853 8.03-12.7 9.78.225 3.425-.3 7.003-1.841 9.933C18.342 81.274 1.246 80.246 1.095 80.284a.894.894 0 0 1-.826-1.027c.037-.495.45-.913 1.014-.837.15 0 16.082.913 23.033-12.368 1.315-2.474 1.84-5.442 1.69-8.449-5.072 1.446-9.994 1.18-13.15-.913-.827-.57-4.81-3.463-4.772-7.84 0-.152.038-3.843 2.743-5.822 3.419-2.474 8.341-.495 10.445.913l.038.038c3.269 2.208 5.486 6.432 6.237 11.037 4.359-1.713 8.567-4.72 11.385-8.943 2.405-3.54 3.532-7.802 3.87-11.874-1.766.267-4.396.305-7.139-.99-3.532-1.598-7.966-5.86-6.913-10.198.45-1.979 2.029-3.806 4.245-4.985 2.03-1.066 4.246-1.332 5.9-.685 2.028.837 3.757 3.12 4.809 6.545.676 2.207 1.09 4.91 1.052 7.764 5.636-2.055 8.492-8.297 9.544-10.694 3.57-7.878 2.104-15.717.939-19.675-.15-.456.15-1.027.639-1.18.15.039.488.115.714.267zm-13.81 32.013c.074-2.851-.34-5.55-1.017-7.754-.866-2.775-2.22-4.751-3.688-5.36-1.129-.456-2.785-.19-4.365.57-1.731.913-2.973 2.357-3.312 3.688-.753 3.078 2.973 6.613 5.908 7.981 2.56 1.255 4.968 1.14 6.473.875zM25.636 55.719c-.6-4.222-2.55-8.179-5.436-10.119l-.038-.038c-2.025-1.37-5.962-2.7-8.287-.95C9.89 46.018 9.89 48.91 9.89 48.91c0 3.424 3.225 5.82 3.862 6.239 2.812 1.864 7.274 1.978 11.886.57z"/>
        </g>
        <g fill="#1F0D60">
            <path d="M314.632 68.082c-37.754 6.265-60.938 18.644-68.878 36.83-2.884 6.57-3.671 13.562-4.57 21.7-1.386 12.073-2.921 25.75-11.536 42.98-4.644 9.285-10.562 17.957-17.566 25.827l-7.191-6.685a109.395 109.395 0 0 0 16.105-23.65c7.828-15.625 9.289-28.386 10.562-39.618.75-6.457 1.424-12.646 3.221-18.72 3.11-3.363 7.566-8.177 9.776-10.469.861-.879.861-2.292 0-3.133a2.072 2.072 0 0 0-1.873-.611c-.112.038-.224.038-.337.076h-.075l.337-.343.525-.535c.524-.535.749-1.3.599-2.025 4.045-4.967 9.176-9.437 15.356-13.334 13.034-8.214 31.2-14.327 54.01-18.11l1.535 9.82zM172.35 214.849c-14.422 14.481-28.806 21.702-42.741 21.435-13.523-.268-22.85-7.374-32.74-14.901-9.514-7.26-19.366-14.787-32.85-15.093-9.553-.229-19.217 3.286-28.732 10.47C23.862 225.355 12.175 239.607.6 259.093l8.316 5.159c19.216-32.287 37.684-48.449 54.915-48.067 10.338.23 18.167 6.19 27.233 13.106 10.188 7.756 21.688 16.544 38.358 16.888 8.84.191 17.68-2.025 26.52-6.61 7.567-3.936 15.134-9.629 22.588-17.003 0 0 .637-.611.675-.65l-6.855-7.068z"/>
        </g>
        <path fill="#8D66DB" d="M230.203 109.441a320.617 320.617 0 0 0-6.367-5.503c-.862-.726-1.723-1.49-2.584-2.216-1.386-1.147-2.735-2.331-4.083-3.478-1.161.994-2.472 1.987-3.933 3.057-9.064 6.612-13.595 9.936-17.528 9.172-10.824-2.14-11.161-33.744-23.933-45.056-6.03-5.35-18.84-9.44-20.6-9.936-.075-.038-.15-.038-.187-.038v-.192c-.038-1.146-.075-2.33-.15-3.477-1.011-.077-2.023-.115-2.996-.191-5.02-.306-10.038-.65-15.057-.956-1.423-.076-2.847-.19-4.232-.267v4.662a63.483 63.483 0 0 0-4.345.956c-2.772.764-5.656 1.757-8.54 3.095-13.408 6.23-23.895 21.21-23.895 21.21-7.678 11.006-21.986 31.451-14.42 43.566 5.58 8.98 21.274 10.7 23.446 10.891 3.67.344 6.78.115 9.027-.191 0 2.216-.375 11.082-.525 13.146a62.11 62.11 0 0 0 2.734-.153c11.424-.611 22.885-1.184 34.308-1.758.263 0 .525-.038.787-.038l24.607-1.261 1.91-.115a530.456 530.456 0 0 0-.224-10.738c-.15-4.815-.337-9.478-.6-14.064-.037-.611-.075-1.223-.112-1.872.112.153.187.306.3.458 8.577 13.261 17.715 14.79 20.038 15.057 13.146 1.605 25.918-10.891 36.405-20.942.637-.611 1.273-1.223 1.873-1.872a13.297 13.297 0 0 1-1.124-.956zm-120.35 4.703c-3.937.458-7.611-.611-8.961-3.094-1.612-2.979.675-6.874 2.662-10.311 1.987-3.475 4.462-5.767 6.15-7.142.374 4.048.337 18.217.15 20.547z"/>
        <path fill="#1F0D60" d="M172.795 119.55c-.037 0-.037 0 0 0-.112 0-.187-.077-.187-.191l.525-32.658c0-.114.075-.191.187-.191.113 0 .188.077.188.191l-.525 32.658c-.038.114-.113.191-.188.191zM139.728 56.54h-.075c-.113-.04-.15-.159-.113-.238.037-.16.075-.24 11.492-.996.112 0 .188.08.188.199 0 .12-.076.199-.188.199-4.282.279-10.779.757-11.267.876 0-.04 0-.04-.037-.04z"/>
        <path fill="#FFC8A5" d="M157.631 123.734c.112 1.184-.749 2.214-1.872 2.329l-1.199.114c.038 0 .038 0 .075.038.712.306 1.236.955 1.31 1.756.113 1.183-.748 2.214-1.871 2.328-5.13.535-10.298 1.069-15.428 1.642-.974.114-1.91.19-2.884.305-.524-3.015-1.048-6.03-1.61-9.084-.524-2.825-1.048-5.61-1.573-8.359.225-.114.45-.229.712-.305l10.784-4.924c1.049-.458 2.285.038 2.771 1.107a2.204 2.204 0 0 1-1.085 2.824l-3.783 1.68c.562 0 1.161.038 1.723.038l9.923-.687a2.113 2.113 0 0 1 2.247 1.985 2.037 2.037 0 0 1-.412 1.412l.562-.077c1.16-.114 2.172.764 2.284 1.909a2.129 2.129 0 0 1-1.723 2.29c.038 0 .038.038.075.038.487.344.9.916.974 1.641z"/>
        <path fill="#000" d="M144.91 118.734c-.112 0-.187-.076-.187-.191s.075-.191.188-.191l10.469-.689c.112 0 .187.077.187.192 0 .114-.075.19-.187.19l-10.47.69zM146.21 122.966c-.113 0-.188-.076-.188-.191s.075-.191.188-.191l10.469-.689c.112 0 .187.077.187.192 0 .114-.075.19-.187.19l-10.47.69zM145.71 126.943c-.112 0-.187-.078-.187-.196 0-.118.075-.196.188-.196l9.218-.628c.113 0 .188.079.188.197 0 .117-.075.196-.188.196l-9.218.627z"/>
        <g>
            <path fill="#FFC8A5" d="M244.519 93.101a2.07 2.07 0 0 0-1.871-.611c0 .038-.038.038-.038.038l-.262-.268c.075-.076.15-.076.225-.038l.524-.535c.524-.535.748-1.299.599-2.025a2.132 2.132 0 0 0-.6-1.146 2.196 2.196 0 0 0-1.684-.65c-.074 0-.15 0-.224.038h-.075c.075-.076.112-.152.187-.229.562-.84.45-2.025-.3-2.79-.86-.878-2.245-.878-3.068 0l-.262.307-.15.152v-.19a1.946 1.946 0 0 0-.561-1.223 2.15 2.15 0 0 0-3.07-.077l-7.522 7.222c-.45.382-.936.764-1.385 1.108l1.946-3.897c.561-1.07.112-2.446-.936-2.98-1.048-.574-2.395-.115-2.92.954-1.833 3.783-3.704 7.566-5.538 11.349a.473.473 0 0 1-.075.115l-.225.458c1.348 1.146 2.732 2.293 4.08 3.477.86.726 1.722 1.452 2.582 2.216 1.722 1.452 3.78 3.248 6.363 5.503.487.42.86.764 1.123.993l.15-.153c.074-.076.187-.19.336-.382.6-.611 1.647-1.757 2.92-3.171 3.106-3.363 7.56-8.177 9.768-10.47.824-.802.824-2.216-.037-3.095z"/>
            <path fill="#000" d="M229.583 93.24a.28.28 0 0 1-.15-.077.19.19 0 0 1 0-.269l7.923-7.652a.177.177 0 0 1 .261 0 .19.19 0 0 1 0 .27l-7.922 7.651c-.037.077-.074.077-.112.077zM233.281 95.739a.28.28 0 0 1-.15-.077.19.19 0 0 1 0-.27l7.923-7.652a.177.177 0 0 1 .261 0 .19.19 0 0 1 0 .27l-7.922 7.652c0 .038-.037.077-.112.077zM242.596 92.227c-.112-.076-.187-.076-.262 0l-1.72 1.64-5.233 4.996a.187.187 0 0 0 0 .267c.037.038.074.076.15.076.037 0 .074 0 .111-.038l4.187-4.005 2.804-2.67.038-.037c0-.077 0-.153-.075-.23zM225.198 101.96s-.039 0 0 0c-.154-.039-.193-.115-.193-.23.231-1.11.346-2.257.385-3.367a18.235 18.235 0 0 0-.5-4.781c-.038-.115.039-.191.154-.23.115-.038.192.039.23.153.385 1.607.538 3.252.5 4.897a20.985 20.985 0 0 1-.384 3.443c0 .076-.116.114-.192.114z"/>
        </g>
        <g>
            <path fill="#8235FF" d="M180.504 302.455c-.376-.42-1.014-1.033-1.84-1.72-2.027-1.607-4.768-1.99-7.133-.957a7.003 7.003 0 0 0-3.228 2.868l-9.837.765c-.15-1.53-.3-3.06-.45-4.627 7.47-.918 14.942-1.836 22.45-2.715 0 2.141.038 4.283.038 6.386zM77.459 290.236c-1.009 1.456-1.98 2.95-2.99 4.405-.485-.88-1.232-1.877-2.353-2.604-1.458-.958-3.214-1.303-5.008-1.035l-10.238-6.051 3.998-6.167 16.59 11.452z"/>
            <g fill="#4300FF">
                <path d="M173.508 148.08h-.038l-2.737.89h-.113a.36.36 0 0 1-.337-.26c-.075-.185.037-.408.225-.482l2.7-.89.3.742zM164.625 201.436c-.037 0-.111 0-.148-.038-.186-.076-.26-.303-.186-.493l2.823-6.032c.074-.19.297-.265.482-.19.186.077.26.304.186.494l-2.822 6.031c-.038.152-.186.228-.335.228zM155.347 178.186c-.149 0-.335-.117-.372-.271-.038-.194.074-.427.26-.465l6.374-1.704c.187-.04.41.077.448.27.037.194-.075.427-.261.466l-6.374 1.704h-.075zM80.588 271.136c-.151 0-.265-.076-.34-.229l-2.76-6.13c-.076-.19 0-.42.189-.495.189-.076.416 0 .491.19l2.76 6.13c.076.191 0 .42-.189.496-.076 0-.113.038-.151.038zM61.98 271.697c-.074 0-.149-.038-.223-.076-.15-.114-.186-.38-.075-.532l4.022-5.318c.112-.151.372-.19.521-.076.15.114.187.38.075.532l-4.022 5.318c-.074.076-.186.152-.298.152zM94.475 262.825a.39.39 0 0 1-.375-.403c0-.241.15-.402.375-.402l6.596-.363c.188-.04.375.161.375.403 0 .242-.15.403-.375.403l-6.596.362zM188.55 289.593c-.038.268-.075.498-.112.765l-3.314.153c-.186 0-.372-.153-.372-.344 0-.23.149-.382.372-.42l3.426-.154zM70.962 282.506c0 .245-.148.408-.37.408l-3.44.204-1.037-.775 4.44-.245c.222 0 .407.204.407.408zM78.054 247.67a.42.42 0 0 1-.298.114.683.683 0 0 1-.262-.076l-3.733-3.344c.15-.19.299-.418.448-.608l3.77 3.382c.225.114.225.38.075.532zM161.837 159.27h-.038l-6.592-.721a.444.444 0 0 1-.34-.417.442.442 0 0 1 .415-.341l6.593.72a.444.444 0 0 1 .339.417c-.038.19-.189.341-.377.341zM171.428 165.235c-.074 0-.111 0-.185-.038-.185-.115-.222-.345-.148-.536l3.26-5.814c.11-.19.333-.23.518-.153.185.115.222.345.148.536l-3.26 5.814c-.11.153-.222.19-.333.19zM196.495 196.616l-2.69 4.731a.39.39 0 0 1-.336.19c-.074 0-.112 0-.186-.037-.187-.115-.225-.344-.15-.534l2.951-5.19.411.84zM173.186 181.602a.34.34 0 0 1-.301-.154c-.113-.154-.113-.423.075-.538l5.191-4.226c.15-.116.414-.116.527.077.113.153.113.422-.075.537l-5.191 4.227c-.076.038-.15.077-.226.077zM182.146 192.411c-.073 0-.11 0-.146-.038-.182-.076-.255-.305-.146-.496l2.877-5.99a.315.315 0 0 1 .473-.152c.182.114.255.305.146.496l-2.877 5.99c-.036.114-.182.19-.327.19zM118.348 159.32c-.111 0-.26-.076-.297-.19l-3.458-5.698a.415.415 0 0 1 .111-.532c.186-.114.41-.038.521.114l3.458 5.698a.415.415 0 0 1-.111.532c-.075.076-.15.076-.224.076zM110.43 172.475h-.076a.371.371 0 0 1-.38-.306l-1.182-5.96c.076-.383.114-.726.19-1.07.191-.039.382.114.42.305l1.333 6.61c.038.192-.114.383-.305.421zM118.396 189.81c-.075 0-.15-.038-.224-.076l-5.415-3.9c-.187-.117-.224-.348-.075-.542.112-.193.336-.231.523-.077l5.415 3.9c.187.117.224.348.075.541a.336.336 0 0 1-.3.155zM147.857 148.166c-.037.039-.111.039-.148.039-.149 0-.26-.078-.335-.235l-.965-2.118c-.037-.04-.037-.118-.037-.157.26 0 .52-.04.78-.04l.89 1.962a.464.464 0 0 1-.185.549zM136.996 158.097a.367.367 0 0 1-.375-.307l-1.237-6.621c-.038-.192.112-.421.3-.46.187-.038.412.115.45.306l1.237 6.622c.038.192-.112.421-.3.46h-.075zM139.94 171.2c-.038 0-.076 0-.114-.038-.189-.076-.302-.303-.227-.493l2.233-6.304c.075-.19.302-.304.491-.228.19.076.303.304.227.494l-2.232 6.304a.394.394 0 0 1-.378.265zM125.488 173.597a.391.391 0 0 1-.223-.077c-.148-.153-.186-.382-.037-.536l4.2-5.166c.15-.153.372-.191.521-.038.149.153.186.382.037.535l-4.2 5.167a.415.415 0 0 1-.298.115zM129.461 192.003h-.112a.413.413 0 0 1-.26-.455l1.826-6.41c.074-.19.26-.304.447-.266a.413.413 0 0 1 .26.455l-1.825 6.41c0 .152-.15.266-.336.266zM184.182 269.606h-.112a.413.413 0 0 1-.26-.455l1.825-6.41c.075-.19.261-.304.448-.266a.413.413 0 0 1 .26.455l-1.826 6.41c0 .152-.149.266-.335.266zM180.815 210.308a.39.39 0 0 1-.336-.19l-3.17-5.853c-.113-.19-.038-.418.148-.532.187-.114.41-.038.523.152l3.17 5.853c.113.19.038.418-.148.532-.075.038-.15.038-.187.038zM172.247 262.468c-.037 0-.075 0-.15-.038l-6.187-2.372c-.187-.077-.3-.306-.225-.498.075-.191.3-.306.488-.23l6.187 2.373c.187.076.3.306.225.497-.038.191-.188.268-.338.268zM144.623 187.873c-.372 1.649-.744 3.336-1.154 5.099h-.037c-.037 0-.074 0-.112-.038-.186-.077-.297-.307-.223-.499l1.526-4.562zM124.639 215.1a.391.391 0 0 1-.223-.076c-.149-.153-.186-.383-.037-.536l4.2-5.166c.149-.153.372-.192.52-.039.15.154.186.383.038.536l-4.2 5.167a.415.415 0 0 1-.298.115zM172.563 285.82a.391.391 0 0 1-.223-.076c-.149-.153-.186-.383-.037-.536l4.2-5.167c.15-.153.372-.19.52-.038.15.153.187.383.038.536l-4.2 5.128a.335.335 0 0 1-.298.153zM191.353 222.749a.391.391 0 0 1-.223-.077c-.149-.153-.186-.383-.037-.536l4.2-5.166c.15-.153.372-.191.52-.038.15.153.187.382.038.535l-4.2 5.167a.415.415 0 0 1-.298.115zM160.984 246.175l-3.018 3.648c.075-.499.189-1.037.302-1.536l2.15-2.61c.15-.154.377-.193.528-.04.15.155.15.385.038.538zM106.998 209.95a.391.391 0 0 1-.223-.076c-.149-.153-.186-.382-.037-.535l4.2-5.167c.15-.153.372-.191.52-.038.15.153.187.382.038.536l-4.2 5.166c-.112.077-.186.115-.298.115zM139.276 208.692c-.111.382-.222.725-.297 1.106l-2.223-4.727c-.074-.19 0-.42.185-.496.185-.076.408 0 .482.191l1.853 3.926zM182.194 248.09c-.147 0-.257-.076-.331-.228l-2.83-6.032c-.074-.19 0-.417.184-.493.183-.076.404 0 .477.19l2.83 6.031c.074.19 0 .418-.183.494-.037.038-.074.038-.147.038zM112.324 228.204c-.18 0-.325-.153-.361-.345l-.867-6.721c-.036-.192.109-.423.325-.423.18-.038.397.115.397.346l.867 6.72c.036.193-.109.423-.325.423h-.036zM191.781 242.43c-.18 0-.325-.154-.36-.346l-.867-6.72c-.036-.193.108-.423.325-.423.18-.039.397.115.397.345l.866 6.721c.036.192-.108.423-.325.423h-.036zM90.275 248.854c-.037 0-.037 0 0 0-.224 0-.373-.19-.373-.42l.336-6.725c0-.23.186-.382.373-.344.223 0 .372.191.335.382l-.335 6.725c0 .23-.15.382-.336.382zM161.214 293.287l-.259 5.254c-.26.039-.481.077-.74.077l.259-5.409c0-.193.185-.386.37-.347.222.038.37.193.37.425zM83.902 281.18a.34.34 0 0 1-.3-.153c-.151-.153-.113-.42.037-.536l5.041-4.363c.15-.153.414-.115.527.038.15.154.113.421-.038.536l-5.04 4.364c-.038.076-.151.114-.227.114zM104.91 248.14a.528.528 0 0 1-.225-.075c-.15-.114-.188-.378-.075-.53l4.118-5.218c.112-.152.374-.19.524-.076.15.113.187.378.075.53l-4.118 5.218a.34.34 0 0 1-.3.152zM156.482 279.294c-.075 0-.15-.038-.225-.076-.15-.113-.187-.378-.075-.53l4.118-5.218c.112-.151.374-.19.524-.076.15.114.187.379.075.53l-4.118 5.219c-.112.113-.224.15-.3.15zM123.998 235.19c-.037 0-.075 0-.113-.038-.19-.076-.303-.304-.227-.494l2.232-6.304c.076-.19.303-.304.492-.228.19.076.303.304.227.494l-2.232 6.304c-.076.152-.19.266-.379.266z"/>
            </g>
            <path fill="#00E04E" d="M92.78 310.529c-4.608-2.906-11.164-2.715-15.248-8.602-.6-.88-1.011-1.682-1.236-2.179a13.877 13.877 0 0 1-.9-2.905 9.724 9.724 0 0 0-.823-2.256c-.487-.88-1.237-1.873-2.36-2.6-1.461-.955-3.222-1.3-5.02-1.032l-10.265-6.04-.45-.267c-.899-.536-2.023-.191-2.547.688-.525.917-.225 2.102.674 2.6l.225.114c-.937 1.3-6.069 9.213-7.455 11.622 2.622 2.026 26.936 23.357 28.621 23.93 1.724.574 4.57.88 10.153 1.415 6.18.612 11.238.88 14.647 1.032-1.498-9.519-4.982-13.57-8.017-15.52z"/>
            <path fill="#1F0D60" d="M99.747 321.46c-2.775 0-5.55-.114-8.325-.344-7.162-.574-10.762-.88-14.1-2.372-5.174-2.334-8.212-6.389-12.336-12.013-1.2-1.607-2.175-3.099-3-4.362-2.25-3.405-3.713-5.662-6.863-6.771-1.462-.536-3.075-.727-4.762-.574-.112 0-.187-.077-.187-.192 0-.114.075-.19.187-.19 1.725-.154 3.375.037 4.912.573 3.263 1.148 4.763 3.443 7.05 6.925.863 1.3 1.8 2.755 3 4.361 4.125 5.586 7.125 9.603 12.225 11.899 3.3 1.492 6.862 1.76 13.987 2.334 2.775.23 5.55.344 8.324.344.113 0 .188.077.188.191-.113.115-.188.192-.3.192z"/>
            <path fill="#1F0D60" d="M74.508 306.42c-.037 0-.075 0-.112-.039a.186.186 0 0 1 0-.267c.037-.038 3.41-3.659 3.748-5.641.038-.229 0-.267 0-.305-.187-.114-1.312.572-2.136 1.105-1.425.915-3.187 2.059-4.649 2.173-.187 0-.674.076-.824-.305-.375-1.029 4.123-4.536 5.51-5.603.075-.076.187-.038.262.038.075.076.038.19-.037.267-2.736 2.096-5.585 4.65-5.36 5.146 0 .038.112.076.45.038 1.349-.153 3.073-1.258 4.46-2.135 1.462-.915 2.174-1.372 2.55-1.105.261.19.186.534.149.686-.375 2.058-3.711 5.68-3.86 5.832-.076.114-.113.114-.15.114z"/>
            <g>
                <path fill="#00E04E" d="M209.663 313.666c-5.623-3.978-11.546 1.301-19.418-3.443-3.935-2.371-7.047-4.246-9.408-7.345a2.46 2.46 0 0 0-.3-.344c-.375-.42-1.012-1.033-1.837-1.722-2.024-1.606-4.76-1.989-7.122-.956a6.996 6.996 0 0 0-3.224 2.87l-9.82.764-.938.077c-1.012.076-1.799.994-1.724 2.066a1.9 1.9 0 0 0 2.024 1.76l.6-.039c.187 1.798.337 3.558.525 5.356.3 3.137.637 6.236.937 9.335 11.695 1.262 23.428 2.486 35.123 3.749 6.672.727 13.382 1.453 20.054 2.142-.337-9.028-3.11-12.625-5.472-14.27z"/>
                <path fill="#1F0D60" d="M214.449 322.888c-7.855-.152-34.039-1.03-41.744-5.795-6.284-3.89-11.221-3.966-13.615-3.66-.112 0-.187-.077-.225-.153 0-.114.075-.19.15-.229 2.431-.305 7.481-.19 13.877 3.737 7.63 4.728 33.739 5.566 41.557 5.719.112 0 .187.076.187.19 0 .115-.075.191-.187.191zM184.45 313.252c-.038 0-.076 0-.113-.039a.186.186 0 0 1 0-.266c.037-.038 3.411-3.66 3.748-5.642.038-.228 0-.266 0-.305-.187-.152-1.312.572-2.136 1.106-1.425.915-3.186 2.058-4.648 2.172-.188 0-.675.077-.825-.304-.375-1.03 4.123-4.536 5.51-5.604.075-.076.188-.038.263.038.075.077.037.191-.038.267-2.736 2.097-5.585 4.65-5.36 5.146 0 .038.112.076.45.038 1.35-.152 3.073-1.258 4.46-2.134 1.462-.915 2.137-1.373 2.55-1.106.262.19.187.534.15.686-.376 2.059-3.712 5.68-3.862 5.832-.075.115-.112.115-.15.115z"/>
            </g>
        </g>
        <g>
            <path fill="#FFC8A5" d="M154.732 27.615c-.037-.114-.074-.267-.15-.381-.15-.382-.673-1.717-1.61-3.357-.224-.382-.449-.801-.71-1.221-1.087-1.717-2.547-3.548-4.344-4.768-.075-.038-.187-.115-.262-.153-.075-.038-.15-.114-.225-.152-.037-.039-.075-.039-.112-.039-.487-.267-1.011-.534-1.535-.686a7.432 7.432 0 0 0-1.835-.344c-7.077-.381-14.865 9.918-13.255 19.34.113.687.3 1.374.487 2.022.187.534.374 1.068.6 1.564l1.01 11.139c5.017.305 10.035.648 15.052.954l-.112-1.374a8.248 8.248 0 0 0 2.733-.686c6.103-2.938 7.04-14.229 4.268-21.858z"/>
            <path fill="#000" d="M155.044 12.28c.15-1.148-.412-2.754-1.46-3.175-1.122-.459-2.32.689-2.62.345-.373-.46 1.872-2.027 1.984-4.437.075-1.223-.374-2.83-1.534-3.518-1.834-1.11-4.49.765-5.239 1.3-1.422.995-2.207 2.257-2.62 3.021.375-1.874-.224-3.633-1.496-4.474-.748-.497-1.721-.688-2.544-.42-1.834.535-3.144 3.326-2.807 6.883-7.97 2.524-13.658 8.414-14.144 14.724-.112 1.606.112 3.213.486 4.666.075.382.187.765.3 1.109.56 1.912 1.272 3.327 1.422 3.595.261.497.523.956.823 1.415.786 1.224 1.609 2.256 2.395 3.06l.71.726c.188.191.375.344.562.497.112.077.187.191.3.268.448.038 1.01.076 1.646.038 1.047-.076 2.282-.344 3.367-1.147 0 0 .038 0 .038-.038 2.432-1.76 1.047-7.726 2.918-12.736.188-.459.375-.918.637-1.376.224-.421.486-.804.748-1.224 2.095-2.869 6.174-5.01 8.42-3.901.037 0 .074.038.111.038.075.038.15.077.225.153.075.038.187.115.262.153.15.077.262.191.412.306.112.076.187.153.299.23a.82.82 0 0 1 .187.152c.075.077.187.153.262.23.112.115.224.191.337.306l.075.076.037.039.187.19c.075.039.112.116.15.154.15.153.3.344.486.497.187.191.374.42.524.612.187.23.337.42.486.65.15.23.3.42.45.65.15.23.299.42.411.65.262.421.487.803.711 1.224.898 1.645 1.46 3.021 1.61 3.366.037.114.111.267.149.382.187-.994.598-4.245-1.347-7.496-.187-.306-.337-.573-.524-.803a6.057 6.057 0 0 0-.749-.918c-1.122-1.262-2.394-2.027-3.255-2.447 3.218-.804 5.912-1.454 6.212-3.595z"/>
            <g fill="#000" transform="translate(142.924 26.039)">
                <ellipse cx=".925" cy="2.524" rx="1" ry="1"/>
                <ellipse cx="8.82" cy=".943" rx="1" ry="1"/>
            </g>
            <path fill="#000" d="M149.761 35.166c-.037 0-.075 0-.113-.039a.186.186 0 0 1 0-.267l2.938-3.09-4.858-5.305a.186.186 0 0 1 0-.267.18.18 0 0 1 .263 0l4.971 5.457a.186.186 0 0 1 0 .267l-3.05 3.205c-.038.039-.075.039-.15.039z"/>
            <g transform="translate(123.434 32.157)">
                <ellipse cx="5.797" cy="5.915" fill="#FFC8A5" rx="5.797" ry="5.915"/>
                <path fill="#000" d="M6.731 8.107h-.037c-.038 0-.943-.268-1.17-1.185-.15-.612.076-1.262.566-1.682L1.377 3.252c-.114-.038-.151-.153-.114-.268.038-.114.151-.153.264-.114l5.016 2.102c.075.038.113.077.113.153a.21.21 0 0 1-.113.191c-.528.306-.83.918-.679 1.453.189.688.867.88.905.88.113.037.15.152.113.229 0 .153-.075.229-.15.229z"/>
            </g>
            <g fill="#000" transform="translate(139.567 22.572)">
                <path d="M13.502 1.284c-.303.153-.643.344-1.021.496-1.437.61-2.723.801-2.912.42-.152-.382.87-1.183 2.307-1.793.302-.114.567-.229.87-.305.302.381.529.8.756 1.182z"/>
                <ellipse cx="3.382" cy="2.677" rx="3.023" ry="1" transform="rotate(-.154 3.382 2.677)"/>
            </g>
            <path fill="#000" d="M147.784 50.564c-.038 0-.038 0 0 0a18.532 18.532 0 0 1-3.303-.393c-1.651-.353-3.265-.863-4.841-1.61-.113-.039-.15-.156-.075-.274.037-.118.15-.157.263-.079a22.501 22.501 0 0 0 4.728 1.61c1.05.196 2.14.353 3.228.392.112 0 .187.079.187.197-.037.04-.112.157-.187.157z"/>
            <g fill="#000">
                <path d="M149.294 36.236s-9.428 1.746-10.518 5.048l11.044-2.733-.526-2.315zM150.77 35.878s8.528-1.934 10.594.812l-10.256 1.586-.338-2.398z"/>
            </g>
            <path fill="#000" d="M152.465 40.384l-5.405.556c-.038 0-.113.042-.15.085-.038.043-.038.128-.038.171.413 1.496 1.614 2.522 2.89 2.522.188 0 .376 0 .601-.086 1.201-.299 2.14-1.581 2.29-3.034.038-.043 0-.128-.037-.171-.038-.043-.075-.086-.15-.043zm-2.16 2.868c-1.246.298-2.492-.51-2.983-1.913l4.947-.51c-.189 1.19-.982 2.168-1.964 2.423z"/>
            <path fill="#F4FF00" d="M123.227 28.333a.553.553 0 0 1-.523-.421.61.61 0 0 1 .374-.728l29.261-8.927a.59.59 0 0 1 .71.383.61.61 0 0 1-.373.728l-29.262 8.927c-.112.038-.15.038-.187.038z"/>
        </g>
    </g>
</svg>
