<svg xmlns="http://www.w3.org/2000/svg" width="77" height="77" viewBox="0 0 77 77">
    <path fill="#DA25C7" fill-rule="evenodd" d="M705.665 4241L705.665 4249.555 697.11 4249.555 697.11 4258.109 688.556 4258.109 688.556 4266.665 688.556 4275.223 697.11 4275.223 697.11 4283.777 705.665 4283.777 705.665 4292.332 697.11 4292.332 688.556 4292.332 680 4292.332 680 4300.887 688.556 4300.887 688.556 4309.445 697.11 4309.445 697.11 4318 705.665 4318 714.223 4318 722.778 4318 731.333 4318 739.887 4318 748.446 4318 748.446 4309.445 757 4309.445 757 4283.777 748.446 4283.777 748.446 4292.332 739.887 4292.332 739.887 4283.777 739.887 4275.223 739.887 4266.665 739.887 4258.109 739.887 4249.555 731.333 4249.555 731.333 4258.109 722.778 4258.109 722.778 4266.665 722.778 4275.223 722.778 4283.777 731.333 4283.777 731.333 4292.332 722.778 4292.332 714.223 4292.332 714.223 4283.777 714.223 4275.223 714.223 4266.665 714.223 4258.109 714.223 4249.555 714.223 4241z" transform="translate(-680 -4241)"/>
</svg>
