<svg xmlns="http://www.w3.org/2000/svg" width="75" height="75" viewBox="0 0 75 75">
    <g fill="#EE1A52" fill-rule="evenodd">
        <path d="M24.854 0v8.284H16.57v8.285H8.285V33.138H0v8.286h8.285V66.282h8.284V41.424h41.427V66.282h8.289V41.424h8.282v-8.286h-8.282V16.57h-8.289V8.284h-8.284V0H24.854zm8.287 33.138h8.285v-8.284h-8.285v8.284z"/>
        <path d="M41.427 57.996L49.712 57.996 49.712 49.712 41.427 49.712zM49.712 66.282L41.426 66.282 33.141 66.282 24.854 66.282 16.569 66.282 16.569 74.565 24.854 74.565 33.141 74.565 41.426 74.565 49.712 74.565 57.996 74.565 57.996 66.282zM24.854 57.996L33.141 57.996 33.141 49.712 24.854 49.712z"/>
    </g>
</svg>
