<svg xmlns="http://www.w3.org/2000/svg" width="72" height="72" viewBox="0 0 72 72">
    <g fill="#DA25C7" fill-rule="evenodd">
        <path d="M23.863 0L23.863 7.953 31.816 7.953 39.77 7.953 47.726 7.953 47.726 0z"/>
        <path d="M47.726 7.953V23.86H23.863V7.953H15.91V23.86H0v39.771h7.953v7.952H63.633V63.63h7.953V23.86H55.68V7.952h-7.953zm7.953 31.814h7.954v-7.954h-7.954v7.954zm-15.91 0h7.957v-7.954H39.77v7.954zm-15.906 0h7.954v-7.954h-7.954v7.954zm-15.91 0h7.956v-7.954H7.953v7.954zm47.726 15.91h7.954v-7.954h-7.954v7.953zm-15.91 0h7.957v-7.954H39.77v7.953zm-15.906 0h7.954v-7.954h-7.954v7.953zm-15.91 0h7.956v-7.954H7.953v7.953z"/>
    </g>
</svg>
