<svg xmlns="http://www.w3.org/2000/svg" width="73" height="93" viewBox="0 0 73 93">
    <g fill="#FC4B21" fill-rule="evenodd">
        <path d="M61.804 30.9L51.499 30.9 41.201 30.9 41.201 41.2 30.902 41.2 30.902 30.9 20.603 30.9 10.3 30.9 0 30.9 0 41.2 10.3 41.2 20.603 41.2 20.603 51.5 20.603 61.799 20.603 72.102 20.603 82.4 20.603 92.7 30.902 92.7 30.902 82.4 30.902 72.102 41.201 72.102 41.201 82.4 41.201 92.7 51.499 92.7 51.499 82.4 51.499 72.102 51.499 61.799 51.499 51.5 51.499 41.2 61.804 41.2 72.103 41.2 72.103 30.9zM20.603 0L20.603 10.299 20.603 20.598 30.902 20.598 30.902 30.9 41.201 30.9 41.201 20.598 51.5 20.598 51.5 10.299 51.5 0z"/>
    </g>
</svg>
