<svg xmlns="http://www.w3.org/2000/svg" xmlns:xlink="http://www.w3.org/1999/xlink" width="25" height="25" viewBox="0 0 25 25">
    <defs>
        <path id="9at255uz0a" d="M0 0L25 0 25 25 0 25z"/>
    </defs>
    <g fill="none" fill-rule="evenodd">
        <mask id="5qc8d2fc7b" fill="#fff">
            <use xlink:href="#9at255uz0a"/>
        </mask>
        <path fill="#F0114F" d="M19.5 7.276c-1.115 0-2.02-.906-2.02-2.02 0-1.113.905-2.02 2.02-2.02 1.113 0 2.02.907 2.02 2.02 0 1.114-.907 2.02-2.02 2.02m-7 12.06c-3.77 0-6.836-3.066-6.836-6.836 0-3.77 3.066-6.835 6.836-6.835 3.77 0 6.835 3.066 6.835 6.835 0 3.77-3.066 6.836-6.835 6.836M18.233 0H6.767C3.035 0 0 3.036 0 6.767v11.466C0 21.965 3.035 25 6.767 25h11.466C21.964 25 25 21.965 25 18.233V6.767C25 3.036 21.964 0 18.233 0" mask="url(#5qc8d2fc7b)"/>
        <path fill="#F0114F" d="M12.5 7.143c-2.954 0-5.357 2.403-5.357 5.357s2.403 5.357 5.357 5.357 5.357-2.403 5.357-5.357-2.403-5.357-5.357-5.357"/>
    </g>
</svg>
