<svg xmlns="http://www.w3.org/2000/svg" width="55" height="55" viewBox="0 0 55 55">
    <g fill="#EE1A52" fill-rule="evenodd">
        <path d="M18.226 0v6.075h-6.075v6.076H6.076V24.3H0v6.077h6.076v18.228h6.075V30.378H42.53v18.228h6.078V30.378h6.074V24.3h-6.074v-12.15H42.53V6.075h-6.076V0H18.226zM24.304 24.3h6.075v-6.075h-6.075v6.075z"/>
        <path d="M30.38 42.53L36.455 42.53 36.455 36.455 30.38 36.455zM36.455 48.607L30.379 48.607 24.304 48.607 18.226 48.607 12.151 48.607 12.151 54.681 18.226 54.681 24.304 54.681 30.379 54.681 36.455 54.681 42.531 54.681 42.531 48.607zM18.226 42.53L24.303 42.53 24.303 36.455 18.226 36.455z"/>
    </g>
</svg>
