<svg xmlns="http://www.w3.org/2000/svg" width="27" height="22" viewBox="0 0 27 22">
    <path fill="#F0114F" d="M27 2.604c-1.004.442-2.074.735-3.19.877 1.148-.687 2.024-1.767 2.436-3.068-1.07.64-2.251 1.091-3.51 1.344C21.72.672 20.272 0 18.692 0c-3.064 0-5.531 2.494-5.531 5.552 0 .44.037.864.128 1.266-4.602-.225-8.674-2.437-11.41-5.806-.477.83-.757 1.782-.757 2.806 0 1.922.987 3.626 2.459 4.613-.89-.017-1.762-.276-2.501-.684v.061c0 2.698 1.919 4.938 4.435 5.455-.45.123-.942.182-1.451.182-.355 0-.713-.02-1.048-.094.717 2.198 2.752 3.814 5.172 3.867-1.884 1.477-4.275 2.367-6.863 2.367-.454 0-.89-.02-1.325-.076C2.452 21.095 5.358 22 8.492 22c10.185 0 15.754-8.462 15.754-15.796 0-.245-.008-.482-.02-.718 1.098-.781 2.021-1.758 2.774-2.882z"/>
</svg>
