<svg xmlns="http://www.w3.org/2000/svg" xmlns:xlink="http://www.w3.org/1999/xlink" width="23" height="27" viewBox="0 0 23 27">
    <defs>
        <path id="bx4wl2ucva" d="M0.001 0L22.5 0 22.5 26.894 0.001 26.894z"/>
    </defs>
    <g fill="none" fill-rule="evenodd">
        <mask id="wscdcxw8ib" fill="#fff">
            <use xlink:href="#bx4wl2ucva"/>
        </mask>
        <path fill="#F0114F" d="M20.795 20.977H18.19v1.376c0 .548.047 1.02.597 1.02.575 0 .605-.387.605-1.02v-.505h1.403v.548c0 1.401-.606 2.255-2.038 2.255-1.3 0-1.966-.943-1.966-2.255V19.12c0-1.265.84-2.144 2.068-2.144 1.305 0 1.936.828 1.936 2.144v1.856zm-5.031 1.962c0 .905-.337 1.605-1.245 1.605-.499 0-.913-.182-1.292-.654v.561h-1.373v-9.882h1.373v3.18c.307-.373.725-.679 1.21-.679.999 0 1.327.837 1.327 1.826v4.043zm-5.24 1.512h-1.36v-.803c-.252.298-.512.523-.785.676-.733.42-1.74.412-1.74-1.07v-6.095H8v5.59c0 .296.073.492.363.492.265 0 .635-.34.802-.544V17.16h1.36v7.292zm-5.449 0H3.54V16H1.954v-1.431h4.703V16H5.07v8.451h.004zM18.94 12.475c-2.933-.2-12.454-.2-15.379 0-3.163.217-3.538 2.12-3.56 7.135.022 5.007.393 6.922 3.56 7.134 2.925.2 12.446.2 15.38 0 3.163-.212 3.538-2.119 3.56-7.134-.022-5.003-.393-6.918-3.56-7.135zm-5.432 5.822c-.093.047-.187.124-.281.221v4.544c.11.12.217.204.324.26.222.11.546.118.695-.077.077-.102.12-.268.12-.501v-3.767c0-.246-.052-.433-.146-.56-.166-.217-.473-.238-.712-.12zm5.292-.042c-.504 0-.61.352-.61.854v.739h1.202v-.74c0-.496-.102-.853-.592-.853zm-2.478-15.53v5.81c-.174.216-.562.573-.844.573-.303 0-.38-.209-.38-.514v-5.87H13.67V9.12c0 .76.23 1.368.998 1.368.43 0 1.032-.221 1.654-.956v.845h1.429V2.725h-1.429zm-5.32 5.682c0 .416-.214.722-.602.722-.392 0-.622-.323-.622-.722V4.844c0-.42.192-.73.597-.73.439 0 .626.3.626.73v3.563zm-.598-5.746c-1.262 0-2.097.828-2.097 2.055V8.47c0 1.347.708 2.052 2.097 2.052 1.147 0 2.051-.769 2.051-2.052V4.716c0-1.197-.895-2.055-2.05-2.055zM2.982-.002h1.62l1.113 4.15 1.031-4.15h1.638l-1.876 6.17v4.21H4.9v-4.21L2.982-.001z" mask="url(#wscdcxw8ib)"/>
    </g>
</svg>
