<svg xmlns="http://www.w3.org/2000/svg" width="15.094" height="14.067" viewBox="0 0 15.094 14.067">
    <defs>
        <style>
            .cls-1{fill:#841f27}
        </style>
    </defs>
    <g id="box" transform="translate(-9 -25.634)">
        <path id="Path_2184" d="M23.175 31.695h-.761a.75.75 0 0 0-.716-.55h-.812v-1.987a.21.21 0 0 0-.1-.185l-5.731-3.31a.212.212 0 0 0-.213 0l-5.733 3.31a.213.213 0 0 0-.109.185v6.621a.214.214 0 0 0 .107.185l5.734 3.31a.214.214 0 0 0 .107.029.225.225 0 0 0 .11-.029l3.017-1.74v1.258a.906.906 0 0 0 .913.908h4.187a.911.911 0 0 0 .919-.908v-6.175a.923.923 0 0 0-.919-.922zm-1.469-.122a.31.31 0 0 1 .31.31v.017a.31.31 0 0 1-.31.31h-1.243a.31.31 0 0 1-.31-.31v-.021a.31.31 0 0 1 .31-.31zm-6.758-5.478l2.382 1.375-5.306 3.063-2.382-1.375zm-.2 12.624l-5.32-3.064v-6.127l5.317 3.063zm.2-6.5l-2.5-1.441 5.306-3.063 2.5 1.441zm3.127.4v4.421l-2.9 1.679v-6.127l5.286-3.063v1.617h.007a.75.75 0 0 0-.716.55c-1.271.004-1.68.414-1.677.921zm5.592 6.175a.483.483 0 0 1-.491.48h-4.188a.478.478 0 0 1-.486-.48v-6.177a.49.49 0 0 1 .486-.494h.769l.707.519H21.7a.732.732 0 0 0 .707-.519h.769a.5.5 0 0 1 .491.494z" class="cls-1" data-name="Path 2184"/>
        <path id="Path_2185" d="M337.212 279.436h.224a.214.214 0 0 0 0-.428h-.008v-.581h.59a.206.206 0 0 0 .2.144.214.214 0 0 0 .215-.213v-.144a.217.217 0 0 0-.216-.215h-1.008a.213.213 0 0 0-.212.215v1.008a.212.212 0 0 0 .212.214z" class="cls-1" data-name="Path 2185" transform="translate(-317.978 -244.655)"/>
        <path id="Path_2186" d="M337.214 343.436h1.008a.214.214 0 0 0 .214-.214v-1.008a.214.214 0 0 0-.214-.214h-1.008a.214.214 0 0 0-.214.214v1.008a.214.214 0 0 0 .214.214zm.214-1.008h.581v.581h-.581z" class="cls-1" data-name="Path 2186" transform="translate(-317.978 -306.7)"/>
        <path id="Path_2187" d="M337.436 407.008h-.008v-.581h.578a.215.215 0 1 0 .43 0v-.206a.223.223 0 0 0-.216-.222h-1.008a.22.22 0 0 0-.212.222v1.008a.206.206 0 0 0 .212.206h.224a.214.214 0 0 0 0-.428z" class="cls-1" data-name="Path 2187" transform="translate(-317.977 -368.744)"/>
        <path id="Path_2188" d="M355.537 284.6l-.626.626-.191-.191a.214.214 0 0 0-.3.3l.342.342a.214.214 0 0 0 .3 0l.778-.778a.214.214 0 0 0-.3-.3z" class="cls-1" data-name="Path 2188" transform="translate(-334.802 -250.994)"/>
        <path id="Path_2189" d="M355.537 413.85l-.626.626-.191-.191a.214.214 0 0 0-.3.3l.342.342a.214.214 0 0 0 .3 0l.778-.778a.214.214 0 0 0-.3-.3z" class="cls-1" data-name="Path 2189" transform="translate(-334.802 -376.294)"/>
        <path id="Path_2190" d="M415.448 295H414.1a.214.214 0 0 0 0 .428h1.343a.214.214 0 0 0 0-.428z" class="cls-1" data-name="Path 2190" transform="translate(-392.52 -261.136)"/>
        <path id="Path_2191" d="M415.448 359H414.1a.214.214 0 0 0 0 .428h1.343a.214.214 0 0 0 0-.428z" class="cls-1" data-name="Path 2191" transform="translate(-392.52 -323.18)"/>
        <path id="Path_2192" d="M415.448 423H414.1a.214.214 0 0 0 0 .428h1.343a.214.214 0 0 0 0-.428z" class="cls-1" data-name="Path 2192" transform="translate(-392.52 -385.225)"/>
    </g>
</svg>
