<svg xmlns="http://www.w3.org/2000/svg" id="shopping-cart" width="34.004" height="29.887" viewBox="0 0 34.004 29.887">
    <defs>
        <style>
            .cls-1{fill:#fff}
        </style>
    </defs>
    <path id="Path_86" d="M10.956 19.925h18.067a1 1 0 0 0 .958-.723l3.985-13.947a1 1 0 0 0-.958-1.27H8.658L7.946.78A1 1 0 0 0 6.974 0H1a1 1 0 0 0 0 1.992h5.174l3.6 16.186a2.988 2.988 0 0 0 1.187 5.731h18.062a1 1 0 1 0 0-1.992H10.958a1 1 0 0 1 0-1.992zM31.687 5.977l-3.415 11.955H11.757L9.1 5.977zm0 0" class="cls-1" data-name="Path 86"/>
    <path id="Path_87" d="M150 362.989a2.989 2.989 0 1 0 2.989-2.989 2.992 2.992 0 0 0-2.989 2.989zm2.989-1a1 1 0 1 1-1 1 1 1 0 0 1 1-.997zm0 0" class="cls-1" data-name="Path 87" transform="translate(-140.038 -336.091)"/>
    <path id="Path_88" d="M362 362.989a2.989 2.989 0 1 0 2.989-2.989 2.992 2.992 0 0 0-2.989 2.989zm2.989-1a1 1 0 1 1-1 1 1 1 0 0 1 1-.997zm0 0" class="cls-1" data-name="Path 88" transform="translate(-337.958 -336.091)"/>
</svg>
