<svg xmlns="http://www.w3.org/2000/svg" width="41.643" height="30.44" viewBox="0 0 41.643 30.44">
    <defs>
        <style>
            .cls-1{fill:#841f27}
        </style>
    </defs>
    <g id="delivery-truck" transform="translate(0 -68.867)">
        <g id="Group_377" data-name="Group 377" transform="translate(0 68.867)">
            <g id="Group_376" data-name="Group 376">
                <path id="Path_91" d="M33.713 78.6h-2.622l.79-9.07v-.049c0-.016 0 0 0 0a.61.61 0 0 0-.368-.559h-.006l-.042-.015-.016-.005-.035-.009-.025-.006h-12.6a.61.61 0 1 0 0 1.22h11.819l-1.214 13.919-.306 3.517H7.891l.355-3.66h4.036a.61.61 0 1 0 0-1.22H8.364l.749-7.726h6.423a.61.61 0 1 0 0-1.22H9.231l.352-3.633h6.766a.61.61 0 0 0 0-1.22H9.028a.61.61 0 0 0-.6.481v.006c0 .015-.005.031-.007.046s0 .01 0 .015L8 73.72H.61a.61.61 0 1 0 0 1.22h7.277l-.749 7.726H4.962a.61.61 0 0 0 0 1.22H7.02l-.408 4.207-.63 6.507V94.721c0 .005 0 .031.007.047s0 .009 0 .014.006.023.009.034 0 .016.006.024v.007a.61.61 0 0 0 .145.239l.02.019a.6.6 0 0 0 .142.1l.033.016h.01l.047.017.055.014h.007l.054.008H9.305a4.643 4.643 0 0 0 9.206 0H28.3a4.643 4.643 0 0 0 9.207 0H40.291l.047-.007h.02l.036-.009.024-.008.03-.011.025-.011.027-.013.024-.013.025-.015.023-.015.024-.018.02-.016.024-.022.017-.016.025-.027.013-.015.025-.034.006-.01a.704.704 0 0 0 .028-.046c.009-.017.018-.034.025-.052l.006-.016c0-.013.01-.025.014-.038s0-.017.007-.026.006-.02.008-.031 0-.019 0-.028v-.025c.026-.207.5-4.04.717-6.518v-.007c.061-.714.1-1.316.1-1.684a7.939 7.939 0 0 0-7.918-7.929zm-2.728 1.22h2.5l-.319 3.66h-2.5zM13.909 98.087a3.425 3.425 0 1 1 3.425-3.425 3.428 3.428 0 0 1-3.425 3.425zm18.991 0a3.425 3.425 0 1 1 3.425-3.425 3.428 3.428 0 0 1-3.425 3.425zm6.781-4.035H37.5a4.643 4.643 0 0 0-9.207 0h-9.781a4.643 4.643 0 0 0-9.207 0H7.26l.512-5.287h21.875a.6.6 0 0 0 .061 0h.011l.047-.007h.02l.036-.009.024-.008.03-.011.025-.011.027-.013.025-.014.025-.015.022-.026.024-.018.021-.017.023-.021.018-.018.021-.024.016-.019.02-.026.014-.02.017-.028.012-.022.014-.029.01-.024c0-.01.007-.019.011-.029l.009-.026c0-.009 0-.019.007-.029s0-.019.007-.029 0-.019 0-.029v-.03l.306-3.51h3.153c1.869 0 2.712.968 3.6 1.994a5.005 5.005 0 0 0 2.956 2.02c-.159 1.872-.451 4.283-.579 5.336zm.7-6.562a3.992 3.992 0 0 1-2.14-1.6 5.729 5.729 0 0 0-3.854-2.376l.316-3.623a6.72 6.72 0 0 1 5.724 6.637c-.004.23-.021.562-.05.962z" class="cls-1" data-name="Path 91" transform="translate(0 -68.867)"/>
            </g>
        </g>
        <g id="Group_379" data-name="Group 379" transform="translate(11.672 92.426)">
            <g id="Group_378" data-name="Group 378">
                <path id="Path_92" d="M145.745 358.524a2.237 2.237 0 1 0 2.237 2.237 2.239 2.239 0 0 0-2.237-2.237zm0 3.253a1.017 1.017 0 1 1 1.017-1.017 1.018 1.018 0 0 1-1.017 1.017z" class="cls-1" data-name="Path 92" transform="translate(-143.508 -358.524)"/>
            </g>
        </g>
        <g id="Group_381" data-name="Group 381" transform="translate(30.663 92.426)">
            <g id="Group_380" data-name="Group 380">
                <path id="Path_93" d="M379.233 358.524a2.237 2.237 0 1 0 2.237 2.237 2.239 2.239 0 0 0-2.237-2.237zm0 3.253a1.017 1.017 0 1 1 1.017-1.017 1.018 1.018 0 0 1-1.017 1.017z" class="cls-1" data-name="Path 93" transform="translate(-376.996 -358.524)"/>
            </g>
        </g>
        <g id="Group_383" data-name="Group 383" transform="translate(2.183 78.599)">
            <g id="Group_382" data-name="Group 382">
                <path id="Path_94" d="M30.426 188.527h-2.982a.61.61 0 1 0 0 1.22h2.982a.61.61 0 1 0 0-1.22z" class="cls-1" data-name="Path 94" transform="translate(-26.834 -188.527)"/>
            </g>
        </g>
    </g>
</svg>
