<svg xmlns="http://www.w3.org/2000/svg" id="Group_769" width="47.999" height="48" data-name="Group 769" viewBox="0 0 47.999 48">
    <defs>
        <style>
            .cls-1{fill:#df4b38}.cls-2{fill:#fff}
        </style>
    </defs>
    <path id="Path_2872" d="M-287.365 281.584a24 24 0 0 1-24-24 24 24 0 0 1 24-24 24 24 0 0 1 24 24 24 24 0 0 1-24 24z" class="cls-1" data-name="Path 2872" transform="translate(311.365 -233.584)"/>
    <g id="Group_768" data-name="Group 768" transform="translate(7.063 13.573)">
        <path id="Path_2873" d="M-280.874 263.668h-9.7l.011 2.777h6.537c-.773 3.382-3.159 5.455-6.362 5.455a7.607 7.607 0 0 1-7.607-7.607 7.607 7.607 0 0 1 7.607-7.608 7.579 7.579 0 0 1 5.172 2.03l2.145-1.849a10.389 10.389 0 0 0-7.316-3 10.426 10.426 0 0 0-10.427 10.427 10.427 10.427 0 0 0 10.427 10.427c5.53 0 9.525-4.218 9.525-9.977z" class="cls-2" data-name="Path 2873" transform="translate(306.81 -253.867)"/>
    </g>
</svg>
