<svg xmlns="http://www.w3.org/2000/svg" width="12.171" height="17.31" viewBox="0 0 12.171 17.31">
    <defs>
        <style>
            .cls-1{fill:#7b292d}
        </style>
    </defs>
    <g id="placeholder" transform="translate(-76)">
        <g id="Group_754" data-name="Group 754" transform="translate(76)">
            <g id="Group_753" data-name="Group 753">
                <path id="Path_2854" d="M82.086 0a6.087 6.087 0 0 0-5.177 9.286l4.831 7.785a.507.507 0 0 0 .431.24.507.507 0 0 0 .431-.247L87.313 9.2A6.087 6.087 0 0 0 82.086 0zm4.357 8.683l-4.28 7.146-4.393-7.078a5.075 5.075 0 1 1 8.672-.069z" class="cls-1" data-name="Path 2854" transform="translate(-76)"/>
            </g>
        </g>
        <g id="Group_756" data-name="Group 756" transform="translate(79.043 3.043)">
            <g id="Group_755" data-name="Group 755">
                <path id="Path_2855" d="M169.043 90a3.043 3.043 0 1 0 3.043 3.043A3.046 3.046 0 0 0 169.043 90zm0 5.078a2.035 2.035 0 1 1 2.032-2.035 2.037 2.037 0 0 1-2.032 2.035z" class="cls-1" data-name="Path 2855" transform="translate(-166 -90)"/>
            </g>
        </g>
    </g>
</svg>
