<svg xmlns="http://www.w3.org/2000/svg" id="Group_770" width="47.999" height="48" data-name="Group 770" viewBox="0 0 47.999 48">
    <defs>
        <style>
            .cls-1{fill:#29a9e1}.cls-2{fill:#fff}
        </style>
    </defs>
    <path id="Path_2875" d="M-397.739 282.729a24 24 0 0 1-24-24 24 24 0 0 1 24-24 24 24 0 0 1 24 24 24 24 0 0 1-24 24z" class="cls-1" data-name="Path 2875" transform="translate(421.739 -234.729)"/>
    <path id="Path_2876" d="M-404.984 273.49a14.849 14.849 0 0 0 8.043 2.358 14.841 14.841 0 0 0 14.914-15.608 10.648 10.648 0 0 0 2.618-2.716 10.5 10.5 0 0 1-3.013.826 5.254 5.254 0 0 0 2.307-2.9 10.529 10.529 0 0 1-3.331 1.273 5.24 5.24 0 0 0-3.831-1.656 5.252 5.252 0 0 0-5.111 6.442 14.893 14.893 0 0 1-10.814-5.483 5.254 5.254 0 0 0 1.624 7.006 5.231 5.231 0 0 1-2.378-.657 5.253 5.253 0 0 0 4.209 5.212 5.267 5.267 0 0 1-2.369.09 5.25 5.25 0 0 0 4.9 3.644 10.543 10.543 0 0 1-7.768 2.169z" class="cls-2" data-name="Path 2876" transform="translate(416.197 -241.456)"/>
</svg>
