<svg xmlns="http://www.w3.org/2000/svg" width="13.05" height="13.05" viewBox="0 0 13.05 13.05">
    <defs>
        <style>
            .cls-1{fill:#febf40}
        </style>
    </defs>
    <g id="favourite-31">
        <path id="Path_82" d="M17.19 8.589a.329.329 0 0 0-.3-.2h-4.016l-1.885-4.033a.329.329 0 0 0-.6 0L8.508 8.388H4.5a.329.329 0 0 0-.237.557l2.967 3.082-1.195 4.78a.329.329 0 0 0 .482.365l4.174-2.385 4.174 2.385a.329.329 0 0 0 .482-.365l-1.195-4.78 2.971-3.082a.329.329 0 0 0 .067-.356z" class="cls-1" data-name="Path 82" transform="translate(-4.166 -4.166)"/>
    </g>
</svg>
